<?xml version="1.0" encoding="iso-8859-1"?>
<!-- Uploaded to: SVG Repo, www.svgrepo.com, Generator: SVG Repo Mixer Tools -->
<svg height="800px" width="800px" version="1.1" id="Capa_1" xmlns="http://www.w3.org/2000/svg" xmlns:xlink="http://www.w3.org/1999/xlink" 
	 viewBox="0 0 462.128 462.128" xml:space="preserve">
<g>
	<g>
		<path style="fill:#010002;" d="M165.723,334.682c21.349,0,50.086-14.929,73.208-38.039c27.752-27.758,42.776-62.228,36.523-83.817
			l-2.816-9.696L145.43,330.344l9.553,2.876C158.193,334.192,161.809,334.682,165.723,334.682z"/>
		<path style="fill:#010002;" d="M398.312,216.645c-6.444-20.902-20.419-42.854-39.363-61.793
			c-26.696-26.702-59.597-43.29-85.875-43.29c-11.468,0-21.481,3.115-29.369,8.986l86.609-86.615c5.818-5.812,5.818-15.275,0-21.093
			C321.918,4.439,310.187,0,296.397,0c-26.26,0-59.162,16.582-85.869,43.284c-42.114,42.114-55.486,94.724-30.437,119.791
			c2.822,2.81,6.57,4.356,10.543,4.356c3.974,0,7.715-1.545,10.549-4.368l0.543-0.543c-2.989,5.042-4.738,10.896-4.738,17.173
			c0,0.501,0.054,0.996,0.078,1.492L93.834,77.963c-5.627-5.627-15.448-5.639-21.093,0c-13.211,13.211-16.385,33.802-8.926,57.974
			c6.444,20.908,20.425,42.854,39.357,61.793c26.708,26.702,59.615,43.29,85.875,43.29c11.468,0,21.481-3.121,29.375-8.992
			l-86.609,86.609c-2.816,2.822-4.368,6.564-4.368,10.549c0,3.986,1.551,7.727,4.368,10.549c8.407,8.407,20.132,12.847,33.91,12.847
			c15.174,0,32.692-5.49,50.169-15.603v110.232c0,8.228,6.695,14.917,14.917,14.917s14.917-6.689,14.917-14.917V314.872
			c1.981-1.802,3.938-3.646,5.853-5.573c42.12-42.12,55.498-94.73,30.455-119.785c-4.768-4.768-12.65-5.436-18.336-2.088
			c0.585-2.488,0.925-5.072,0.925-7.733c0-3.622-0.585-7.107-1.647-10.376l105.315,105.309c2.828,2.816,6.57,4.362,10.549,4.362
			c3.986,0,7.727-1.551,10.549-4.368C402.602,261.409,405.77,240.817,398.312,216.645z M192.765,154.614
			c-1.14,1.134-3.133,1.116-4.236,0.012c-19.971-19.983-6.313-66.143,30.449-102.905c24.548-24.542,54.215-39.787,77.432-39.787
			c10.555,0,19.362,3.234,25.479,9.344c1.158,1.164,1.158,3.055,0,4.219L192.765,154.614z M230.81,201.573
			c-12.065,0-21.881-9.816-21.881-21.881s9.816-21.881,21.881-21.881s21.881,9.816,21.881,21.881S242.881,201.573,230.81,201.573z
			 M214.526,219.736c-6.122,6.116-14.929,9.35-25.479,9.35c-23.217,0-52.884-15.251-77.438-39.793
			c-17.584-17.59-30.509-37.788-36.392-56.876c-6.092-19.744-3.974-36.088,5.961-46.017c0.567-0.567,1.313-0.877,2.112-0.877
			c0.459,0,1.349,0.113,2.112,0.871l129.129,129.111c0.561,0.567,0.871,1.319,0.871,2.112
			C215.397,218.411,215.081,219.181,214.526,219.736z M226.597,213.214c1.384,0.173,2.787,0.292,4.213,0.292
			c2.333,0,4.618-0.239,6.82-0.692l-12.471,12.471c1.384-2.297,2.166-4.911,2.166-7.661
			C227.331,216.102,227.039,214.634,226.597,213.214z M273.598,197.951c19.971,19.983,6.313,66.149-30.455,102.911
			c-2.399,2.399-4.863,4.678-7.351,6.898l-1.999,1.778v137.662c0,1.641-1.343,2.983-2.983,2.983c-1.647,0-2.983-1.343-2.983-2.983
			V314.967l-9.308,6.283c-18.527,12.513-37.281,19.398-52.795,19.398c-10.549,0-19.357-3.234-25.473-9.35
			c-0.758-0.764-0.871-1.647-0.871-2.112c0-0.465,0.113-1.349,0.871-2.112l129.123-129.129
			C270.489,196.829,272.482,196.823,273.598,197.951z M230.81,145.878c-6.277,0-12.137,1.748-17.179,4.738l23.325-23.33
			c-1.384,2.291-2.166,4.905-2.166,7.661c0,3.98,1.551,7.721,4.362,10.549l2.029,2.029
			C237.916,146.463,234.431,145.878,230.81,145.878z M380.954,266.182c-0.764,0.758-1.647,0.871-2.112,0.871
			c-0.8,0-1.551-0.316-2.112-0.871L247.606,137.065c-0.555-0.555-0.871-1.331-0.871-2.118c0-0.8,0.31-1.551,0.871-2.112
			c6.116-6.11,14.923-9.344,25.479-9.344c23.229,0,52.896,15.245,77.438,39.793c17.59,17.596,30.515,37.788,36.398,56.876
			C392.995,239.898,390.889,256.247,380.954,266.182z"/>
		<path style="fill:#010002;" d="M346.286,167.508c-23.116-23.116-51.852-38.045-73.219-38.045c-3.944,0-7.566,0.495-10.758,1.462
			l-9.529,2.888l127.166,127.166l2.876-9.547c2.417-8.019,1.856-18.223-1.635-29.512
			C375.584,203.739,363.191,184.418,346.286,167.508z"/>
		<path style="fill:#010002;" d="M296.409,17.901c-21.355,0-50.098,14.929-73.213,38.039
			c-27.758,27.764-42.776,62.228-36.529,83.811l2.81,9.696L316.703,22.233l-9.547-2.882
			C303.951,18.39,300.342,17.901,296.409,17.901z"/>
		<path style="fill:#010002;" d="M79.281,101.15c-2.411,7.99-1.85,18.193,1.641,29.5c5.603,18.187,18.002,37.514,34.912,54.424
			c23.11,23.11,51.846,38.045,73.214,38.045c3.95,0,7.572-0.495,10.77-1.462l9.523-2.894L82.169,91.609L79.281,101.15z"/>
		<path style="fill:#010002;" d="M230.81,163.779c-8.777,0-15.914,7.136-15.914,15.914s7.142,15.914,15.914,15.914
			s15.914-7.136,15.914-15.914S239.587,163.779,230.81,163.779z"/>
	</g>
</g>
</svg>