<svg width="75" height="60" viewBox="0 0 75 60" fill="none" xmlns="http://www.w3.org/2000/svg">
<g clip-path="url(#clip0_28_71)">
<path d="M15.5777 0C11.2983 0 8.13164 3.74561 8.27344 7.80762C8.40967 11.71 8.23271 16.7646 6.96035 20.8863C5.68418 25.0201 3.52559 27.6387 0 27.975V31.7707C3.52559 32.107 5.68418 34.7256 6.96035 38.8597C8.23271 42.9815 8.40967 48.0355 8.27344 51.9381C8.13164 55.9995 11.2983 59.7457 15.5783 59.7457H59.4278C63.7075 59.7457 66.8733 56.0001 66.7315 51.9381C66.5956 48.0357 66.7723 42.9815 68.0446 38.8597C69.3217 34.7259 71.4744 32.1067 75 31.7707V27.975C71.4744 27.6387 69.3217 25.0201 68.0449 20.8863C66.7723 16.7651 66.5956 11.7103 66.7315 7.80762C66.8733 3.74619 63.7075 0 59.4278 0H15.5771H15.5777V0ZM50.8477 36.7772C50.8477 42.3706 46.6758 45.7626 39.7523 45.7626H27.9662C27.6291 45.7625 27.3059 45.6286 27.0675 45.3902C26.8292 45.1518 26.6953 44.8285 26.6953 44.4914V15.2543C26.6953 15.0873 26.7281 14.922 26.792 14.7677C26.8559 14.6135 26.9495 14.4733 27.0675 14.3552C27.1856 14.2372 27.3257 14.1435 27.48 14.0796C27.6342 14.0157 27.7995 13.9828 27.9665 13.9828H39.685C45.4579 13.9828 49.2466 17.1103 49.2466 21.9114C49.2466 25.2814 46.6978 28.2984 43.4508 28.8267V29.0027C47.8714 29.4876 50.8477 32.5488 50.8477 36.7772V36.7772ZM38.4668 18.0126H31.747V27.5048H37.4071C41.7823 27.5048 44.1952 25.7429 44.1952 22.5935C44.1952 19.6424 42.1204 18.0126 38.4671 18.0126H38.4668ZM31.747 31.2712V41.7316H38.7144C43.2694 41.7316 45.6829 39.9038 45.6829 36.4685C45.6829 33.0325 43.2023 31.2706 38.4214 31.2706H31.747V31.2712Z" fill="#7E13F8"/>
</g>
<defs>
<clipPath id="clip0_28_71">
<rect width="75" height="59.7656" fill="white"/>
</clipPath>
</defs>
</svg>
