<svg width="54" height="75" viewBox="0 0 54 75" fill="none" xmlns="http://www.w3.org/2000/svg">
<g clip-path="url(#clip0_28_69)">
<path d="M26.5604 74.8105L4.91593 68.8018L0.092453 14.7021H53.0931L48.2647 68.7935L26.5604 74.8105V74.8105Z" fill="#264DE4"/>
<path d="M44.131 65.3491L48.257 19.1254H26.5928V70.2112L44.131 65.3491V65.3491Z" fill="#2965F1"/>
<path d="M11.1501 39.1903L11.7447 45.8254H26.5928V39.1903H11.1501ZM9.95505 25.7607L10.5582 32.3959H26.5928V25.7607H9.95505V25.7607ZM26.5928 56.4224L26.5637 56.4301L19.1742 54.4348L18.7018 49.1431H12.0411L12.9706 59.5612L26.5622 63.3341L26.5928 63.3258V56.4224Z" fill="#EBEBEB"/>
<path d="M12.5659 0H20.6019V3.36066H15.9266V6.72133H20.6024V10.0818H12.5659V0ZM22.2094 0H30.2456V2.9223H25.57V3.50672H30.2456V10.228H22.2096V7.15928H26.8851V6.57486H22.2091V0H22.2094ZM31.853 0H39.8892V2.9223H35.2136V3.50672H39.8892V10.228H31.853V7.15928H36.5285V6.57486H31.8532V0H31.853Z" fill="black"/>
<path d="M41.9931 39.1903L43.1909 25.7607H26.5699V32.3959H35.9194L35.3156 39.1903H26.5699V45.8254H34.7404L33.97 54.4307L26.5697 56.4281V63.331L40.1722 59.5612L40.2719 58.4402L41.8313 40.972L41.9931 39.1903V39.1903Z" fill="white"/>
</g>
<defs>
<clipPath id="clip0_28_69">
<rect width="53.1856" height="75" fill="white"/>
</clipPath>
</defs>
</svg>
