<svg width="27" height="27" viewBox="0 0 27 27" fill="none" xmlns="http://www.w3.org/2000/svg">
<path d="M9.17578 17.8269C6.5918 16.3318 4.85156 13.5369 4.85156 10.3359C4.85156 5.56084 8.7249 1.6875 13.5 1.6875C18.2751 1.6875 22.1484 5.56084 22.1484 10.3359C22.1484 13.5369 20.4082 16.3318 17.8242 17.8269V20.8828C17.8242 21.3495 17.4472 21.7266 16.9805 21.7266H10.0195C9.55283 21.7266 9.17578 21.3495 9.17578 20.8828V17.8269ZM10.3359 23.4141H16.6641C16.7801 23.4141 16.875 23.509 16.875 23.625V24.4688C16.875 24.9354 16.4979 25.3125 16.0312 25.3125H10.9688C10.5021 25.3125 10.125 24.9354 10.125 24.4688V23.625C10.125 23.509 10.2199 23.4141 10.3359 23.4141Z" fill="#525252"/>
</svg>
