<svg width="54" height="75" viewBox="0 0 54 75" fill="none" xmlns="http://www.w3.org/2000/svg">
<g clip-path="url(#clip0_28_68)">
<path d="M53.0931 14.7021L48.2647 68.7935L26.5604 74.8105L4.91593 68.8018L0.092453 14.7021H53.0931Z" fill="#E44D26"/>
<path d="M26.5928 70.2112L44.131 65.3491L48.257 19.1254H26.5928V70.2112Z" fill="#F16529"/>
<path d="M17.2064 32.3959H26.5928V25.7607H9.95506L10.1138 27.5408L11.7447 45.8254H26.5928V39.1903H17.8128L17.2064 32.3959V32.3959ZM18.7018 49.1431H12.0411L12.9706 59.5612L26.5623 63.3341L26.5928 63.3258V56.4224L26.5637 56.4301L19.1742 54.4348L18.7018 49.1431Z" fill="#EBEBEB"/>
<path d="M5.02354 0H8.39543V3.33137H11.48V0H14.8521V10.0882H11.4802V6.71011H8.39564V10.0882H5.02375V0H5.02354ZM19.286 3.3455H16.318V0H25.6284V3.3455H22.6585V10.0882H19.2866V3.3455H19.2864H19.286ZM27.106 0H30.6218L32.7846 3.54474L34.9452 0H38.4625V10.0882H35.1044V5.08795L32.7846 8.67486H32.7264L30.4051 5.08795V10.0882H27.106V0ZM40.1406 0H43.5135V6.75374H48.2553V10.0882H40.1404V0H40.1406Z" fill="black"/>
<path d="M26.5699 45.8254H34.7404L33.97 54.4307L26.5697 56.4281V63.331L40.1722 59.5612L40.2719 58.4402L41.8313 40.972L41.9931 39.1903H26.5699V45.8254ZM26.5699 32.3796V32.3959H42.5969L42.7298 30.9046L43.0323 27.5408L43.1909 25.7607H26.5699V32.3799V32.3796Z" fill="white"/>
</g>
<defs>
<clipPath id="clip0_28_68">
<rect width="53.1856" height="75" fill="white"/>
</clipPath>
</defs>
</svg>
