<svg width="75" height="20" viewBox="0 0 75 20" fill="none" xmlns="http://www.w3.org/2000/svg">
<g clip-path="url(#clip0_28_72)">
<path d="M5.81383 2.02288C5.05211 1.11908 4.39601 0.201205 4.26212 0.0104826C4.25894 0.00714567 4.2551 0.00448962 4.25086 0.00267495C4.24662 0.000860272 4.24205 -7.53403e-05 4.23744 -7.53403e-05C4.23282 -7.53403e-05 4.22826 0.000860272 4.22402 0.00267495C4.21977 0.00448962 4.21594 0.00714567 4.21276 0.0104826C4.07872 0.201205 3.42277 1.11908 2.66105 2.02288C-3.87728 10.3617 3.69083 15.989 3.69083 15.989L3.75426 16.0315C3.81066 16.8998 3.95172 18.1496 3.95172 18.1496H4.51598C4.51598 18.1496 4.65704 16.9069 4.71344 16.0315L4.77701 15.982C4.78405 15.989 12.352 10.3617 5.81383 2.02288V2.02288ZM4.23385 15.862C4.23385 15.862 3.89532 15.5724 3.80363 15.4243V15.4101L4.21276 6.32996C4.21276 6.30169 4.25509 6.30169 4.25509 6.32996L4.66407 15.4101V15.4243C4.57238 15.5724 4.23385 15.862 4.23385 15.862Z" fill="#01EC64"/>
<path d="M18.397 14.0092L15.2432 6.30659L15.2363 6.28535H12.7827V6.80303H13.1785C13.2987 6.80303 13.4118 6.85283 13.4968 6.93779C13.5816 7.0229 13.6241 7.13643 13.6241 7.25713L13.5533 15.0091C13.5533 15.2503 13.3554 15.4488 13.1149 15.456L12.7119 15.463V15.9737H15.102V15.463L14.8544 15.456C14.614 15.4488 14.416 15.2503 14.416 15.0092V7.70361L17.8525 15.9735C17.902 16.0941 18.0151 16.1722 18.1425 16.1722C18.2697 16.1722 18.3828 16.0941 18.4323 15.9735L21.7912 7.88804L21.8407 15.0091C21.8407 15.2572 21.6426 15.4559 21.3951 15.4629H21.1405V15.9735H23.9407V15.4629H23.5588C23.3186 15.4629 23.1204 15.2572 23.1135 15.0161L23.0921 7.26387C23.092 7.14612 23.1377 7.03294 23.2195 6.94825C23.3013 6.86357 23.4128 6.81401 23.5305 6.81006L23.9407 6.80288V6.28521H21.5506L18.3968 14.009L18.397 14.0092ZM40.3862 15.3281C40.3083 15.25 40.2656 15.1436 40.2656 15.0155V11.2075C40.2656 10.4829 40.0531 9.91436 39.6277 9.50947C39.2093 9.10444 38.6281 8.89849 37.905 8.89849C36.8911 8.89849 36.0901 9.31055 35.5299 10.1205C35.5229 10.1347 35.5017 10.1418 35.4804 10.1418C35.459 10.1418 35.445 10.1275 35.445 10.1063L35.1826 9.09023H34.743L33.6158 9.73682V10.092H33.9064C34.0412 10.092 34.1546 10.1275 34.2327 10.1987C34.3106 10.2697 34.3531 10.3762 34.3531 10.5253V15.0085C34.3531 15.1364 34.3106 15.243 34.2327 15.3212C34.1546 15.3993 34.0482 15.4419 33.9207 15.4419H33.6371V15.9605H36.2317V15.4419H35.9483C35.8206 15.4419 35.7142 15.3993 35.6363 15.3212C35.5584 15.243 35.5157 15.1364 35.5157 15.0085V12.0387C35.5157 11.6622 35.6008 11.2856 35.7568 10.916C35.9199 10.5538 36.1608 10.2482 36.4799 10.0137C36.7989 9.7793 37.1818 9.66563 37.6213 9.66563C38.1176 9.66563 38.4933 9.82192 38.7272 10.1345C38.9612 10.4471 39.0817 10.8521 39.0817 11.3353V15.0013C39.0817 15.1292 39.0393 15.2357 38.9612 15.3139C38.8833 15.3921 38.7769 15.4346 38.6492 15.4346H38.3657V15.9533H40.9604V15.4348H40.677C40.5706 15.449 40.4713 15.4063 40.3862 15.3281V15.3281ZM64.0922 6.86528C63.375 6.4834 62.5734 6.28521 61.7085 6.28521H58.3335V6.80156H58.6638C58.7903 6.80156 58.9028 6.85107 59.0153 6.96416C59.1208 7.07036 59.1771 7.19063 59.1771 7.31792V14.9278C59.1771 15.0552 59.121 15.1753 59.0153 15.2815C58.9099 15.3876 58.7903 15.4441 58.6638 15.4441H58.3333V15.9605H61.7085C62.5734 15.9605 63.375 15.7625 64.0922 15.3804C64.8094 14.9985 65.393 14.4327 65.8148 13.7114C66.2369 12.9901 66.4548 12.1201 66.4548 11.1299C66.4548 10.1398 66.2369 9.27686 65.815 8.54854C65.3861 7.81304 64.8094 7.2542 64.0923 6.86528H64.0922ZM65.0978 11.1158C65.0978 12.0211 64.9361 12.7849 64.6195 13.4002C64.3031 14.0155 63.8813 14.4751 63.3609 14.7724C62.8406 15.0693 62.2639 15.2178 61.6452 15.2178H60.9631C60.8366 15.2178 60.7241 15.1683 60.6116 15.0552C60.5061 14.949 60.4499 14.8289 60.4499 14.7016V7.523C60.4499 7.39556 60.4991 7.28262 60.6116 7.16939C60.717 7.06333 60.8366 7.00679 60.9631 7.00679H61.6452C62.2639 7.00679 62.8405 7.15518 63.3609 7.45225C63.8813 7.74932 64.3031 8.20899 64.6195 8.82437C64.9359 9.44663 65.0978 10.2176 65.0978 11.1158ZM74.433 11.6322C74.1208 11.2714 73.5183 10.9673 72.8099 10.8045C73.7881 10.3166 74.2909 9.63062 74.2909 8.74644C74.2909 8.26567 74.1639 7.83413 73.9083 7.46646C73.6534 7.09878 73.2916 6.80156 72.8312 6.59649C72.37 6.39141 71.8313 6.28535 71.2217 6.28535H67.4013V6.80156H67.706C67.8335 6.80156 67.9471 6.85107 68.0605 6.96416C68.1668 7.07036 68.2235 7.19063 68.2235 7.31792V14.9278C68.2235 15.0552 68.1668 15.1753 68.0605 15.2815C67.9541 15.3876 67.8335 15.4441 67.706 15.4441H67.3729V15.9605H71.5198C72.1504 15.9605 72.7386 15.8544 73.2705 15.6422C73.8022 15.4301 74.2274 15.1188 74.5324 14.7086C74.844 14.2985 75 13.7962 75 13.2163C74.993 12.594 74.8086 12.0634 74.433 11.6322V11.6322ZM69.6766 15.0623C69.5703 14.9562 69.5136 14.8359 69.5136 14.7086V11.2925H71.4844C72.1786 11.2925 72.7103 11.4693 73.079 11.8228C73.4476 12.1765 73.632 12.6362 73.632 13.2021C73.632 13.5415 73.5464 13.874 73.3912 14.1781C73.228 14.4892 72.9864 14.7368 72.6609 14.9278C72.3416 15.1187 71.9448 15.2178 71.4844 15.2178H70.0308C69.9034 15.2178 69.7898 15.1682 69.6765 15.0621L69.6766 15.0623ZM69.5208 10.5642V7.53003C69.5208 7.40273 69.5703 7.28965 69.6836 7.17642C69.79 7.07036 69.9106 7.01382 70.0381 7.01382H70.9739C71.6468 7.01382 72.1434 7.18359 72.4556 7.50894C72.767 7.84131 72.923 8.26567 72.923 8.78892C72.923 9.32651 72.774 9.75791 72.4837 10.0833C72.1928 10.4014 71.7535 10.5642 71.1724 10.5642H69.5208V10.5642ZM30.5083 9.34937C29.9666 9.05347 29.3616 8.89819 28.7074 8.89819C28.0705 8.89819 27.4736 9.03867 26.949 9.32593L26.9067 9.34937C26.365 9.64541 25.9359 10.0753 25.6194 10.6181C25.303 11.1608 25.1411 11.7952 25.1411 12.5C25.1411 13.2048 25.3028 13.8393 25.6194 14.382C25.9359 14.9247 26.365 15.3546 26.9067 15.6505C27.4484 15.9466 28.0534 16.1017 28.7074 16.1017C29.3445 16.1017 29.9414 15.9614 30.4658 15.6743L30.5083 15.6507C31.0499 15.3546 31.4791 14.9247 31.7956 14.382C32.112 13.8393 32.2739 13.2048 32.2739 12.5C32.2739 11.7952 32.112 11.1608 31.7956 10.6181C31.4791 10.0753 31.05 9.64541 30.5083 9.34951V9.34937ZM31.0288 12.5C31.0288 13.367 30.8178 14.0717 30.3957 14.5793C29.9807 15.0867 29.411 15.3475 28.7074 15.3475C28.0166 15.3475 27.4547 15.0959 27.0416 14.6063L27.0193 14.5793C26.5972 14.0717 26.3861 13.367 26.3861 12.5C26.3861 11.6489 26.5897 10.954 26.9965 10.4486L27.0193 10.4208C27.4342 9.91333 28.0042 9.65244 28.7074 9.65244C29.411 9.65244 29.9807 9.91318 30.3957 10.4208C30.8178 10.9283 31.0288 11.6331 31.0288 12.5ZM55.4376 9.34937C54.8959 9.05347 54.2911 8.89819 53.6369 8.89819C53 8.89819 52.4029 9.03867 51.8785 9.32593L51.836 9.34937C51.2944 9.64541 50.8654 10.0753 50.5488 10.6181C50.2323 11.1608 50.0704 11.7952 50.0704 12.5C50.0704 13.2048 50.2323 13.8393 50.5488 14.382C50.8652 14.9247 51.2944 15.3546 51.8361 15.6505C52.3777 15.9466 52.9827 16.1017 53.6369 16.1017C54.2738 16.1017 54.8709 15.9614 55.3953 15.6743L55.4377 15.6507C55.9793 15.3546 56.4084 14.9247 56.7249 14.382C57.0415 13.8393 57.2032 13.2048 57.2032 12.5C57.2032 11.7952 57.0415 11.1608 56.7249 10.6181C56.4085 10.0753 55.9723 9.64541 55.4376 9.34951V9.34937ZM55.9582 12.5C55.9582 13.367 55.7471 14.0717 55.3251 14.5793C54.91 15.0867 54.3403 15.3475 53.6369 15.3475C52.9459 15.3475 52.384 15.0959 51.971 14.6063L51.9486 14.5793C51.5266 14.0717 51.3155 13.367 51.3155 12.5C51.3155 11.6418 51.519 10.9537 51.9258 10.4486L51.9486 10.4208C52.3636 9.91333 52.9335 9.65244 53.6369 9.65244C54.3403 9.65244 54.91 9.91318 55.3251 10.4208C55.7401 10.9283 55.9582 11.6331 55.9582 12.5V12.5ZM45.3841 8.89834C44.8172 8.89834 44.3001 9.0186 43.8325 9.25942C43.3649 9.5001 42.9965 9.82588 42.7345 10.2437C42.4738 10.649 42.336 11.1212 42.3378 11.6032C42.3378 12.0422 42.437 12.4458 42.6425 12.807C42.8407 13.1539 43.1099 13.4442 43.4501 13.6849L42.437 15.0586C42.3095 15.2285 42.2953 15.4551 42.3873 15.6393C42.4865 15.8304 42.6708 15.9437 42.8833 15.9437H43.1738C42.9022 16.1269 42.6826 16.3427 42.5276 16.597L42.5077 16.6305C42.3236 16.9349 42.2314 17.2537 42.2314 17.5793C42.2314 18.1774 42.4912 18.6731 43.0037 19.046L43.032 19.0663C43.5564 19.4416 44.2931 19.6327 45.2211 19.6327C45.8657 19.6327 46.4821 19.5265 47.0419 19.3211C47.5923 19.1218 48.0425 18.8287 48.3795 18.4487L48.4088 18.415C48.756 18.0183 48.9333 17.5368 48.9333 16.9846C48.9333 16.4039 48.7207 15.9932 48.2249 15.5968C47.7998 15.264 47.1338 15.087 46.3049 15.087H43.4713C43.4671 15.0866 43.4632 15.085 43.46 15.0823L43.4571 15.0798L43.4558 15.0769C43.4543 15.0724 43.452 15.0637 43.4571 15.0586L44.1939 14.0673C44.3684 14.1486 44.5513 14.2103 44.7394 14.2513C44.9093 14.2868 45.1006 14.301 45.3132 14.301C45.9082 14.301 46.4467 14.1806 46.9143 13.9399C47.3818 13.6991 47.7573 13.3734 48.0265 12.9555C48.2956 12.5449 48.4302 12.0847 48.4302 11.5961C48.4302 11.0722 48.1753 10.1162 47.481 9.62769C47.481 9.62329 47.4835 9.62168 47.4856 9.62095L47.488 9.62051L49.0112 9.79043V9.0895H46.5741C46.1917 8.96909 45.7948 8.89834 45.3841 8.89834V8.89834ZM46.2341 13.331C45.9649 13.4725 45.6746 13.5504 45.3841 13.5504C44.9095 13.5504 44.4914 13.3805 44.1372 13.0477C43.783 12.7148 43.6059 12.2263 43.6059 11.6032C43.6059 10.98 43.783 10.4914 44.1372 10.1587C44.4914 9.82588 44.9093 9.65596 45.3841 9.65596C45.6691 9.65596 45.9413 9.721 46.2004 9.85723L46.2341 9.87539C46.5034 10.017 46.723 10.2366 46.9001 10.527C47.07 10.8173 47.1623 11.1784 47.1623 11.6032C47.1623 12.0352 47.0772 12.3962 46.9001 12.6794C46.7301 12.9697 46.5034 13.1892 46.2341 13.3308V13.331ZM44.3143 15.9366H46.2341C46.7654 15.9366 47.1056 16.0428 47.3322 16.2694C47.5589 16.496 47.6722 16.8004 47.6722 17.1545C47.6722 17.6714 47.4668 18.0964 47.0559 18.4148C46.645 18.7336 46.0925 18.8963 45.4124 18.8963C44.8172 18.8963 44.3213 18.7619 43.96 18.507C43.5987 18.2521 43.4146 17.8625 43.4146 17.3669C43.4146 17.0553 43.4996 16.765 43.6696 16.5101C43.8396 16.2552 44.0451 16.0711 44.3142 15.9366H44.3143Z" fill="#001E2B"/>
</g>
<defs>
<clipPath id="clip0_28_72">
<rect width="75" height="19.7754" fill="white"/>
</clipPath>
</defs>
</svg>
