<svg width="662" height="175" viewBox="0 0 662 175" fill="none" xmlns="http://www.w3.org/2000/svg">
<g clip-path="url(#clip0_28_72)">
<path d="M51.3166 17.8559C44.5932 9.87826 38.802 1.77651 37.6202 0.0930691C37.5921 0.0636154 37.5583 0.0401713 37.5208 0.0241538C37.4834 0.00813627 37.4431 -0.00012207 37.4023 -0.00012207C37.3616 -0.00012207 37.3213 0.00813627 37.2839 0.0241538C37.2464 0.0401713 37.2126 0.0636154 37.1845 0.0930691C36.0014 1.77651 30.2115 9.87826 23.488 17.8559C-34.2236 91.4594 32.5776 141.13 32.5776 141.13L33.1375 141.505C33.6353 149.17 34.8804 160.201 34.8804 160.201H39.8609C39.8609 160.201 41.106 149.232 41.6038 141.505L42.165 141.068C42.227 141.13 109.027 91.4594 51.3166 17.8559ZM37.3707 140.009C37.3707 140.009 34.3826 137.453 33.5732 136.146V136.02L37.1845 55.873C37.1845 55.6235 37.5581 55.6235 37.5581 55.873L41.1681 136.02V136.146C40.3587 137.453 37.3707 140.009 37.3707 140.009Z" fill="#01EC64"/>
<path d="M162.384 123.654L134.546 55.6662L134.485 55.4787H112.828V60.0481H116.322C117.383 60.0481 118.381 60.4877 119.131 61.2376C119.88 61.9888 120.255 62.9909 120.255 64.0563L119.63 132.48C119.63 134.61 117.884 136.362 115.761 136.425L112.204 136.487V140.994H133.3V136.487L131.115 136.425C128.993 136.362 127.245 134.61 127.245 132.481V67.9972L157.578 140.993C158.015 142.057 159.013 142.746 160.138 142.746C161.26 142.746 162.258 142.057 162.695 140.993L192.343 69.6251L192.78 132.48C192.78 134.67 191.032 136.424 188.847 136.486H186.6V140.993H211.316V136.486H207.945C205.825 136.486 204.076 134.67 204.015 132.542L203.826 64.1157C203.825 63.0764 204.228 62.0774 204.95 61.3299C205.673 60.5824 206.657 60.145 207.696 60.1101L211.316 60.0468V55.4774H190.22L162.382 123.653L162.384 123.654ZM356.475 135.296C355.787 134.607 355.411 133.667 355.411 132.537V98.925C355.411 92.5287 353.535 87.5107 349.78 83.9369C346.087 80.3619 340.957 78.544 334.575 78.544C325.625 78.544 318.555 82.1811 313.611 89.3299C313.549 89.4553 313.361 89.5187 313.174 89.5187C312.985 89.5187 312.861 89.392 312.861 89.2045L310.545 80.2365H306.665L296.715 85.9436V89.0791H299.281C300.47 89.0791 301.471 89.392 302.16 90.0204C302.848 90.6475 303.223 91.5874 303.223 92.9037V132.475C303.223 133.604 302.848 134.545 302.16 135.235C301.471 135.925 300.532 136.301 299.406 136.301H296.903V140.878H319.805V136.301H317.303C316.176 136.301 315.237 135.925 314.549 135.235C313.861 134.545 313.485 133.604 313.485 132.475V106.261C313.485 102.938 314.236 99.6142 315.613 96.352C317.053 93.1545 319.179 90.4574 321.996 88.3873C324.812 86.3186 328.191 85.3153 332.07 85.3153C336.451 85.3153 339.767 86.6948 341.832 89.454C343.897 92.2132 344.961 95.7883 344.961 100.053V132.412C344.961 133.54 344.586 134.48 343.897 135.171C343.209 135.861 342.271 136.236 341.143 136.236H338.641V140.815H361.544V136.238H359.042C358.103 136.363 357.226 135.987 356.475 135.296ZM565.72 60.5976C559.39 57.2268 552.315 55.4774 544.68 55.4774H514.89V60.0351H517.805C518.922 60.0351 519.915 60.4722 520.908 61.4703C521.839 62.4077 522.336 63.4693 522.336 64.5928V131.763C522.336 132.887 521.841 133.948 520.908 134.885C519.978 135.821 518.922 136.32 517.805 136.32H514.888V140.878H544.68C552.315 140.878 559.39 139.13 565.72 135.758C572.051 132.387 577.202 127.392 580.926 121.026C584.651 114.659 586.575 106.98 586.575 98.2398C586.575 89.5006 584.651 81.8837 580.927 75.4551C577.141 68.9631 572.051 64.0304 565.721 60.5976H565.72ZM574.596 98.1157C574.596 106.106 573.169 112.848 570.375 118.279C567.582 123.71 563.858 127.767 559.266 130.391C554.673 133.012 549.583 134.323 544.121 134.323H538.101C536.984 134.323 535.991 133.886 534.998 132.887C534.067 131.95 533.571 130.89 533.571 129.766V66.403C533.571 65.2781 534.005 64.2812 534.998 63.2818C535.929 62.3457 536.984 61.8466 538.101 61.8466H544.121C549.583 61.8466 554.672 63.1564 559.266 65.7785C563.858 68.4006 567.582 72.458 570.375 77.8897C573.168 83.3823 574.596 90.1872 574.596 98.1157ZM656.995 102.673C654.239 99.4888 648.921 96.8046 642.669 95.3681C651.303 91.0612 655.741 85.0062 655.741 77.2019C655.741 72.9584 654.62 69.1493 652.363 65.9039C650.114 62.6586 646.92 60.0351 642.856 58.225C638.786 56.4148 634.03 55.4787 628.65 55.4787H594.928V60.0351H597.618C598.744 60.0351 599.746 60.4722 600.747 61.4703C601.685 62.4077 602.186 63.4693 602.186 64.5928V131.763C602.186 132.887 601.685 133.948 600.747 134.885C599.808 135.821 598.744 136.32 597.618 136.32H594.678V140.878H631.281C636.848 140.878 642.039 139.942 646.734 138.068C651.427 136.196 655.181 133.449 657.873 129.828C660.623 126.208 662 121.774 662 116.656C661.938 111.163 660.31 106.48 656.995 102.673ZM615.012 132.95C614.073 132.013 613.573 130.952 613.573 129.828V99.675H630.969C637.096 99.675 641.789 101.236 645.044 104.356C648.297 107.478 649.925 111.535 649.925 116.53C649.925 119.526 649.17 122.461 647.799 125.145C646.359 127.891 644.227 130.077 641.354 131.763C638.535 133.447 635.032 134.323 630.969 134.323H618.138C617.014 134.323 616.012 133.884 615.011 132.948L615.012 132.95ZM613.636 93.2463V66.4651C613.636 65.3415 614.073 64.3433 615.074 63.3438C616.013 62.4077 617.077 61.9086 618.203 61.9086H626.463C632.403 61.9086 636.786 63.4072 639.541 66.2789C642.29 69.2126 643.667 72.9584 643.667 77.5768C643.667 82.322 642.352 86.1298 639.789 89.0015C637.221 91.8098 633.344 93.2463 628.215 93.2463H613.636ZM269.286 82.5237C264.505 79.9119 259.165 78.5414 253.391 78.5414C247.769 78.5414 242.5 79.7813 237.87 82.3169L237.496 82.5237C232.715 85.1368 228.928 88.9317 226.134 93.7221C223.341 98.5126 221.912 104.112 221.912 110.333C221.912 116.555 223.339 122.155 226.134 126.945C228.928 131.735 232.715 135.53 237.496 138.142C242.278 140.755 247.618 142.124 253.391 142.124C259.014 142.124 264.283 140.886 268.911 138.352L269.286 138.143C274.067 135.53 277.855 131.735 280.649 126.945C283.442 122.155 284.871 116.555 284.871 110.333C284.871 104.112 283.442 98.5126 280.649 93.7221C277.855 88.9317 274.068 85.1368 269.286 82.525V82.5237ZM273.88 110.333C273.88 117.986 272.018 124.206 268.292 128.687C264.629 133.165 259.601 135.467 253.391 135.467C247.293 135.467 242.333 133.247 238.687 128.924L238.49 128.687C234.764 124.206 232.901 117.986 232.901 110.333C232.901 102.821 234.698 96.6869 238.289 92.2262L238.49 91.9805C242.152 87.5017 247.183 85.1989 253.391 85.1989C259.601 85.1989 264.629 87.5004 268.292 91.9805C272.018 96.4606 273.88 102.681 273.88 110.333ZM489.329 82.5237C484.548 79.9119 479.209 78.5414 473.435 78.5414C467.813 78.5414 462.543 79.7813 457.914 82.3169L457.539 82.5237C452.759 85.1368 448.972 88.9317 446.177 93.7221C443.383 98.5126 441.955 104.112 441.955 110.333C441.955 116.555 443.383 122.155 446.177 126.945C448.97 131.735 452.759 135.53 457.54 138.142C462.32 140.755 467.66 142.124 473.435 142.124C479.056 142.124 484.327 140.886 488.955 138.352L489.33 138.143C494.11 135.53 497.898 131.735 500.692 126.945C503.486 122.155 504.913 116.555 504.913 110.333C504.913 104.112 503.486 98.5126 500.692 93.7221C497.899 88.9317 494.048 85.1368 489.329 82.525V82.5237ZM493.924 110.333C493.924 117.986 492.061 124.206 488.336 128.687C484.672 133.165 479.643 135.467 473.435 135.467C467.336 135.467 462.376 133.247 458.731 128.924L458.533 128.687C454.808 124.206 452.945 117.986 452.945 110.333C452.945 102.759 454.741 96.6843 458.331 92.2262L458.533 91.9805C462.196 87.5017 467.226 85.1989 473.435 85.1989C479.643 85.1989 484.672 87.5004 488.336 91.9805C491.999 96.4606 493.924 102.681 493.924 110.333ZM400.59 78.5427C395.586 78.5427 391.022 79.6042 386.895 81.7299C382.768 83.8542 379.516 86.7298 377.203 90.4173C374.902 93.9955 373.686 98.1632 373.701 102.417C373.701 106.292 374.577 109.855 376.391 113.043C378.14 116.105 380.517 118.667 383.519 120.792L374.577 132.917C373.452 134.417 373.326 136.417 374.138 138.043C375.014 139.73 376.64 140.729 378.516 140.729H381.08C378.683 142.347 376.745 144.251 375.377 146.496L375.201 146.792C373.576 149.479 372.763 152.292 372.763 155.167C372.763 160.446 375.055 164.821 379.579 168.113L379.829 168.292C384.458 171.604 390.96 173.291 399.151 173.291C404.841 173.291 410.282 172.354 415.223 170.541C420.081 168.782 424.055 166.194 427.03 162.84L427.289 162.543C430.353 159.042 431.917 154.792 431.917 149.917C431.917 144.792 430.041 141.166 425.665 137.668C421.912 134.73 416.034 133.168 408.718 133.168H383.706C383.67 133.165 383.635 133.15 383.607 133.127L383.581 133.105L383.569 133.079C383.556 133.039 383.536 132.962 383.581 132.917L390.085 124.168C391.625 124.885 393.24 125.43 394.9 125.792C396.399 126.105 398.088 126.23 399.964 126.23C405.216 126.23 409.969 125.167 414.096 123.043C418.223 120.917 421.537 118.043 423.914 114.354C426.289 110.73 427.477 106.667 427.477 102.355C427.477 97.7303 425.227 89.2924 419.099 84.9804C419.099 84.9416 419.121 84.9274 419.139 84.9209L419.161 84.917L432.605 86.4169V80.23H411.094C407.718 79.1672 404.215 78.5427 400.59 78.5427ZM408.093 117.668C405.717 118.917 403.154 119.605 400.59 119.605C396.401 119.605 392.711 118.105 389.584 115.167C386.458 112.23 384.895 107.918 384.895 102.417C384.895 96.9171 386.458 92.6037 389.584 89.6674C392.711 86.7298 396.399 85.2299 400.59 85.2299C403.106 85.2299 405.508 85.804 407.796 87.0065L408.093 87.1668C410.47 88.4171 412.408 90.3552 413.971 92.9179C415.471 95.4806 416.285 98.6677 416.285 102.417C416.285 106.23 415.534 109.417 413.971 111.917C412.471 114.479 410.47 116.416 408.093 117.667V117.668ZM391.147 140.667H408.093C412.783 140.667 415.785 141.605 417.785 143.605C419.787 145.605 420.786 148.292 420.786 151.417C420.786 155.98 418.973 159.731 415.347 162.542C411.72 165.355 406.843 166.792 400.84 166.792C395.586 166.792 391.21 165.605 388.02 163.355C384.831 161.105 383.206 157.666 383.206 153.292C383.206 150.542 383.956 147.979 385.457 145.729C386.957 143.479 388.771 141.854 391.146 140.667H391.147Z" fill="#001E2B"/>
</g>
<defs>
<clipPath id="clip0_28_72">
<rect width="662" height="174.551" fill="white"/>
</clipPath>
</defs>
</svg>
