<svg width="75" height="52" viewBox="0 0 75 52" fill="none" xmlns="http://www.w3.org/2000/svg">
<g clip-path="url(#clip0_28_73)">
<path d="M22.311 33.7349L24.5903 41.1305C25.1024 42.8096 25.316 43.9818 25.2305 44.6499C26.4771 41.3112 27.348 37.6729 27.8436 33.7349H30.5843C29.4059 40.1459 27.8515 44.8047 25.9222 47.711C24.4189 49.9506 22.7722 51.0703 20.9789 51.0703C20.5008 51.0703 19.9113 50.9259 19.2119 50.6391V49.0937C19.5536 49.1437 19.9545 49.1706 20.4157 49.1706C21.2522 49.1706 21.9265 48.9387 22.4395 48.4759C23.0537 47.9121 23.3612 47.2784 23.3612 46.576C23.3612 46.0964 23.1214 45.1122 22.644 43.6233L19.4682 33.7349H22.3109H22.311ZM4.86665 29.1894L9.04146 41.927H9.06724L13.2677 29.1894H16.6995C17.451 35.5063 17.8948 41.2862 18.0311 46.5252H15.1377C15.0359 41.6278 14.7539 37.0226 14.2928 32.7088H14.2676L9.86162 46.5252H7.6582L3.27891 32.7088H3.25313C2.92822 36.8517 2.72373 41.4568 2.63848 46.5252H0C0.170508 40.3611 0.597217 34.5831 1.28013 29.1894H4.8668H4.86665Z" fill="#00758F"/>
<path d="M51.6354 28.9321C56.1262 28.9321 58.3717 31.8012 58.3717 37.5365C58.3717 40.6531 57.6964 43.0072 56.3471 44.5976C56.104 44.8882 55.8352 45.1393 55.5521 45.3719L58.7301 46.9433L58.7271 46.9431L57.5987 48.8916L53.4601 46.4769C52.7741 46.68 52.0192 46.7815 51.1967 46.7815C48.9917 46.7815 47.3446 46.1389 46.2557 44.8553C45.0604 43.4353 44.463 41.1998 44.463 38.1526C44.463 35.0536 45.1371 32.7083 46.4868 31.1159C47.7161 29.6593 49.4326 28.932 51.6354 28.932V28.9321ZM37.8835 28.9573C39.4885 28.9573 40.9479 29.3868 42.2625 30.2427L41.5948 31.7306C40.47 31.2524 39.3609 31.0124 38.2673 31.0124C37.3799 31.0124 36.6961 31.2259 36.2194 31.6557C35.7401 32.0817 35.4437 32.6298 35.4437 33.2981C35.4437 34.325 36.1752 35.2154 37.5259 35.9678C37.9684 36.2097 38.4094 36.4543 38.8488 36.7018L38.9496 36.7585L39.0001 36.7869L39.1011 36.8436L39.1515 36.872L39.2522 36.9289C40.2747 37.5053 41.2368 38.0555 41.2368 38.0555C42.5874 39.0142 43.2606 40.0364 43.2606 41.7199C43.2606 43.1902 42.7219 44.3971 41.6479 45.3415C40.5731 46.2816 39.1292 46.753 37.321 46.753C35.6298 46.753 33.9908 46.2104 32.4032 45.1343L33.1459 43.6452C34.5122 44.33 35.7485 44.672 36.8587 44.672C37.8999 44.672 38.7149 44.4395 39.3045 43.9805C39.893 43.518 40.2456 42.873 40.2456 42.0552C40.2456 41.0259 39.5295 40.1459 38.216 39.4078C37.8049 39.1807 37.395 38.9513 36.9863 38.7198L36.8856 38.6628C36.7008 38.5583 36.5146 38.4526 36.3322 38.349L36.2333 38.2928C35.3464 37.7883 34.5795 37.3475 34.5795 37.3475C33.2665 36.387 32.608 35.3565 32.608 33.6584C32.608 32.2541 33.099 31.119 34.0796 30.2555C35.0625 29.39 36.3306 28.9573 37.8835 28.9573V28.9573ZM63.6494 29.1894V44.3927H69.1042V46.5252H60.8829V29.1894H63.6494ZM72.1352 44.3993V44.7596H71.5355V46.5233H71.077V44.7596H70.454V44.3993H72.1354H72.1352ZM73.2426 44.3993L73.8185 45.8471L74.3474 44.3993H74.9974V46.5233H74.5652V44.9068L73.9632 46.5233H73.6516L73.0485 44.9068H73.0254V46.5233H72.6166V44.3993H73.2428H73.2426ZM51.353 31.0641C48.7066 31.0641 47.3827 33.2481 47.3827 37.6134C47.3827 40.1139 47.7335 41.9271 48.4339 43.0572C49.0825 44.1031 50.0984 44.625 51.4816 44.625C54.128 44.625 55.4518 42.4239 55.4518 38.0238C55.4518 35.5583 55.101 33.7607 54.4015 32.63C53.7521 31.5864 52.7367 31.0641 51.3532 31.0641H51.353Z" fill="#F29111"/>
<path d="M44.4167 1.07417C45.2946 -1.08296 48.3642 0.550635 49.5554 1.30415C49.8473 1.49268 50.1822 1.89097 50.5169 2.03818C51.0391 2.05869 51.5609 2.09956 52.084 2.12139C53.0651 2.35195 53.9842 2.54033 54.7573 2.98066C58.3503 5.09663 60.6892 7.25288 62.8418 10.8145C63.3018 11.5689 63.5316 12.3853 63.9073 13.2016C64.4288 14.4185 65.0147 15.6958 65.62 16.8464C65.891 17.3919 66.1006 17.9985 66.477 18.4592C66.6239 18.6699 67.0412 18.732 67.2907 18.8578C67.9803 19.2148 68.8159 19.4858 69.4645 19.9047C70.6758 20.66 71.8469 21.56 72.9116 22.4814C73.3084 22.8371 73.5788 23.3405 73.9569 23.7167V23.9065C73.6213 24.0095 73.2869 24.115 72.9521 24.1995C72.221 24.3873 71.5734 24.3448 70.8642 24.5328C70.4259 24.6599 69.8817 24.8276 69.422 24.8703L69.4645 24.913C69.7349 25.6857 71.198 26.3142 71.8671 26.7763C72.6798 27.3628 73.4329 28.0742 74.0391 28.8911C74.2484 29.0996 74.4577 29.2893 74.666 29.4971C74.8116 29.7078 74.8526 29.9802 75 30.168V30.2316C74.8368 30.174 74.7195 30.0642 74.6083 29.9493L74.5419 29.88C74.4756 29.8112 74.4086 29.7435 74.3323 29.6877C73.8712 29.3728 73.4133 28.996 72.9521 28.7032C72.1594 28.2001 71.2399 27.9082 70.4259 27.4033C69.9656 27.1102 69.5269 26.7763 69.0882 26.4409C68.6905 26.1469 68.2525 25.5823 68.0026 25.1634C67.8554 24.9319 67.8352 24.6599 67.667 24.4925C67.697 24.2128 67.9532 24.1298 68.2118 24.0615L68.2712 24.0459C68.3604 24.0227 68.4478 23.9996 68.5239 23.9689C69.61 23.5078 70.9047 23.3405 72.5767 23.3824C72.5137 22.9626 71.469 22.4395 71.1354 22.1881C70.466 21.7056 69.7572 21.2022 69.047 20.763C68.6707 20.533 68.0222 20.3651 67.6053 20.1772C67.0412 19.9466 65.7875 19.7162 65.4749 19.2771C64.9438 18.5848 64.5624 17.759 64.1921 16.925L64.0913 16.6973C64.0577 16.6214 64.024 16.5456 63.9902 16.4698C63.5525 15.4654 63.0088 14.4182 62.5701 13.3897C62.3407 12.888 62.2353 12.4477 61.9841 11.9665C60.4597 9.01362 58.2034 6.54141 55.4678 4.80278C54.5688 4.23706 53.5664 3.71353 52.4599 3.35772C51.8328 3.16831 51.0801 3.27305 50.412 3.12773H49.9723C49.597 3.02197 49.2836 2.62412 48.9908 2.41436C48.3441 1.9752 47.6963 1.68032 46.9229 1.36699C46.6519 1.24131 45.878 0.948633 45.6079 1.17905C45.4406 1.22109 45.3558 1.28423 45.3146 1.4521C45.1482 1.70259 45.2946 2.07993 45.3981 2.31094C45.7119 2.98037 46.1502 3.37822 46.548 3.94395C46.902 4.44565 47.3416 5.01138 47.5925 5.55689C48.1339 6.72949 48.386 8.02866 48.8877 9.20112C49.0737 9.64204 49.368 10.1437 49.6389 10.5415C49.8684 10.8571 50.2857 11.0854 50.412 11.485C50.6637 11.9039 50.0353 13.2863 49.8898 13.7253C49.3456 15.4431 49.4511 17.831 50.0777 19.32L50.1111 19.3985L50.1445 19.478C50.3733 20.0234 50.6183 20.6106 51.2266 20.7631C51.2685 20.7215 51.2266 20.7434 51.3097 20.7215C51.4569 19.569 51.4983 18.4591 51.8956 17.5573C52.1251 16.9935 52.5835 16.5949 52.8977 16.1347C53.1072 16.2601 53.1072 16.6381 53.232 16.8883C53.5039 17.5373 53.7958 18.2487 54.131 18.8996C54.8188 20.2399 55.5929 21.5394 56.4699 22.7118C56.7636 23.1306 57.1803 23.5916 57.5562 23.9688C57.7236 24.1148 57.9111 24.1992 58.037 24.3872H58.078V24.4504C57.4513 24.2194 57.0541 23.5711 56.5542 23.1926C55.6132 22.4811 54.4863 21.4126 53.8377 20.3874C53.5664 19.7988 53.2731 19.2347 52.9808 18.6491V18.6067C52.8558 18.774 52.8977 18.9401 52.8352 19.1933C52.5639 20.2399 52.7728 21.4339 51.8328 21.8104C50.7672 22.2513 49.9724 21.0989 49.6389 20.5752C48.573 18.837 48.2811 15.9047 49.0327 13.5376C49.1997 13.0137 49.2224 12.3853 49.5139 11.9669C49.4509 11.5887 49.1594 11.4853 48.9908 11.2535C48.6984 10.8574 48.4481 10.396 48.2191 9.9561C47.7794 9.09683 47.4665 8.07012 47.1327 7.14858C46.9859 6.77227 46.9438 6.39448 46.7975 6.03823C46.5479 5.49448 46.0878 4.94897 45.7329 4.46792C45.2522 3.77651 43.8524 2.43647 44.4167 1.07417V1.07417ZM51.2681 5.17793C51.3239 5.23389 51.3913 5.28281 51.461 5.33101L51.5451 5.38872C51.6571 5.46636 51.7657 5.5481 51.8322 5.65942C51.9376 5.80679 51.9573 5.95225 52.0835 6.0999C52.0835 6.60337 51.9376 6.93809 51.6431 7.14668C51.6431 7.14668 51.623 7.16865 51.6023 7.18916C51.4353 6.85356 51.289 6.51973 51.1208 6.18442C50.9137 5.89175 50.6209 5.65957 50.4521 5.32515H50.4116V5.28311C50.6637 5.22085 50.9137 5.17793 51.2681 5.17793Z" fill="#00758F"/>
</g>
<defs>
<clipPath id="clip0_28_73">
<rect width="75" height="51.123" fill="white"/>
</clipPath>
</defs>
</svg>
