<svg width="75" height="16" viewBox="0 0 75 16" fill="none" xmlns="http://www.w3.org/2000/svg">
<g clip-path="url(#clip0_28_67)">
<path d="M62.9213 0.00629883V2.41743H57.7392V15.1025H55.1479V2.41758H49.8577V0.00629883H62.9213ZM63.5039 13.6645C63.6864 13.6645 63.8461 13.7301 63.9813 13.8617C64.1184 13.9931 64.1867 14.1505 64.1886 14.3339C64.1882 14.4543 64.1548 14.5722 64.0919 14.6748C64.0302 14.7761 63.9438 14.86 63.8408 14.9187C63.739 14.9795 63.6225 15.0112 63.5039 15.0104C63.3141 15.0104 63.1526 14.9446 63.0176 14.8132C62.8824 14.6817 62.8154 14.5225 62.8172 14.3339C62.8156 14.1505 62.8824 13.9931 63.0176 13.8617C63.1526 13.7301 63.3141 13.6645 63.5039 13.6645ZM12.1459 15.1025L2.59131 3.22676V15.0964H0V0H3.23892L15.3101 14.9896L15.3103 2.41758L15.3092 0.00629883H28.3727V2.41743H17.9014V6.29634H26.3225V8.70762H17.9014V12.6914H28.3729V15.1025H12.1459ZM36.6775 8.68462L38.3757 10.7959L34.8959 15.1204H31.4953L36.6775 8.68462V8.68462ZM34.8959 0.0125977L39.2802 5.45742L43.6507 0.0292969L47.0418 0.0241699L40.978 7.56592L47.0517 15.1088H43.6507L31.505 0.0125977H34.8959ZM67.9264 8.65078H69.0746V13.0746C69.073 13.4811 68.9849 13.8287 68.8131 14.1212C68.6392 14.4135 68.3985 14.6367 68.0897 14.7942C67.7824 14.9498 67.4225 15.0294 67.0134 15.0294C66.6394 15.0294 66.3042 14.9621 66.0057 14.8305C65.7072 14.699 65.4703 14.5018 65.2964 14.2422C65.1207 13.9828 65.0347 13.6592 65.0347 13.2718H66.1849C66.1866 13.4413 66.2251 13.5882 66.2988 13.7112C66.3714 13.8327 66.4775 13.9305 66.6044 13.9931C66.7359 14.059 66.8871 14.0918 67.0572 14.0918C67.2417 14.0918 67.3997 14.0537 67.5278 13.9758C67.6559 13.8996 67.7543 13.7855 67.8229 13.6333C67.8895 13.4827 67.9247 13.2959 67.9264 13.0745V8.65063V8.65078ZM73.799 10.3808C73.7711 10.1127 73.6481 9.90322 73.4339 9.75454C73.2179 9.60396 72.9388 9.52969 72.5963 9.52969C72.3561 9.52969 72.1488 9.56602 71.9767 9.63691C71.8047 9.70957 71.6713 9.8064 71.5799 9.9293C71.4888 10.0521 71.4431 10.1922 71.4394 10.3497C71.4394 10.4811 71.471 10.5954 71.5324 10.6904C71.5961 10.7901 71.6821 10.8736 71.7835 10.9345C71.8937 11.0038 72.0116 11.0601 72.1348 11.1022C72.2646 11.1472 72.3946 11.1853 72.5244 11.2165L73.1231 11.3635C73.3638 11.4189 73.5973 11.4932 73.8202 11.5884C74.043 11.6818 74.245 11.8012 74.4223 11.9448C74.5997 12.0883 74.7401 12.2613 74.8437 12.4638C74.9473 12.6662 75 12.9032 75 13.1766C75 13.545 74.9052 13.8686 74.7138 14.1488C74.5225 14.4274 74.2468 14.6454 73.8851 14.8028C73.5252 14.9585 73.0897 15.0381 72.5771 15.0381C72.082 15.0381 71.6502 14.9619 71.2866 14.8097C70.9216 14.6593 70.6371 14.4376 70.4316 14.147C70.2262 13.8564 70.1156 13.5018 70.0998 13.0849H71.2377C71.2534 13.3028 71.3237 13.4845 71.4431 13.6315C71.5641 13.7769 71.7221 13.8841 71.9153 13.9567C72.1102 14.0278 72.3278 14.0641 72.5684 14.0641C72.8194 14.0641 73.0406 14.026 73.2319 13.9516C73.4216 13.8772 73.5708 13.7735 73.678 13.6384C73.7868 13.5051 73.8413 13.3478 73.8431 13.1679C73.8413 13.0036 73.7919 12.8669 73.6972 12.7595C73.6006 12.6523 73.4672 12.5624 73.2968 12.4897C73.125 12.417 72.9248 12.3513 72.6965 12.2943L71.9697 12.1109C71.4447 11.9776 71.0287 11.7753 70.7249 11.5036C70.4194 11.232 70.2684 10.8722 70.2684 10.4206C70.2684 10.0504 70.3702 9.7251 70.5757 9.44648C70.7793 9.16816 71.0585 8.95181 71.4114 8.79785C71.7659 8.64214 72.1664 8.56597 72.6122 8.56597C73.0652 8.56597 73.4619 8.64214 73.8044 8.79785C74.1466 8.95181 74.4154 9.16626 74.6101 9.4396C74.805 9.71309 74.907 10.0261 74.9123 10.3808H73.799V10.3808Z" fill="black"/>
</g>
<defs>
<clipPath id="clip0_28_67">
<rect width="75" height="15.2344" fill="white"/>
</clipPath>
</defs>
</svg>
