<svg width="75" height="78" viewBox="0 0 75 78" fill="none" xmlns="http://www.w3.org/2000/svg">
<g clip-path="url(#clip0_28_74)">
<path d="M74.7094 46.3143C74.2597 44.9522 73.0816 44.0036 71.5582 43.776C70.8398 43.6687 70.0172 43.7145 69.0436 43.9151C67.3468 44.2652 66.0879 44.3985 65.1691 44.4243C68.637 38.5693 71.4568 31.8926 73.0802 25.6075C75.7052 15.4447 74.3024 10.8149 72.6633 8.7208C68.3253 3.17783 61.9963 0.200098 54.3609 0.108985C50.2878 0.0591804 46.7121 0.86338 44.8468 1.4417C43.1101 1.13525 41.2427 0.964161 39.2833 0.93252C35.6103 0.873927 32.3651 1.67461 29.5922 3.32022C28.057 2.80107 25.5932 2.06924 22.7478 1.60225C16.0559 0.503614 10.6623 1.35967 6.71718 4.14668C1.94004 7.52109 -0.274515 13.384 0.135055 21.5725C0.265133 24.1723 1.71943 32.0824 4.00927 39.5842C5.32529 43.8961 6.72861 47.4768 8.18027 50.2277C10.239 54.1286 12.4418 56.4258 14.9147 57.2508C16.3008 57.7125 18.8191 58.0359 21.4679 55.8299C21.8036 56.2365 22.2516 56.6405 22.846 57.0158C23.601 57.4919 24.5241 57.881 25.4461 58.1115C28.7687 58.9421 31.8809 58.7344 34.536 57.5701C34.5524 58.0424 34.565 58.4936 34.5756 58.8832C34.5932 59.5151 34.6107 60.1348 34.6339 60.7143C34.7912 64.6324 35.0578 67.679 35.8477 69.8106C35.891 69.9278 35.9493 70.1065 36.0108 70.2961C36.4049 71.5025 37.0638 73.5223 38.7401 75.104C40.476 76.7426 42.5757 77.245 44.4987 77.245C45.4632 77.245 46.3834 77.1185 47.1905 76.9456C50.0675 76.3289 53.335 75.3896 55.6986 72.024C57.9334 68.8424 59.0197 64.0503 59.2163 56.4996C59.2418 56.286 59.2652 56.0821 59.2878 55.8879L59.3347 55.4889L59.8611 55.5352L59.9968 55.5442C62.927 55.6778 66.5101 55.0564 68.7105 54.0343C70.4493 53.2274 76.0213 50.2857 74.7094 46.3143" fill="black"/>
<path d="M69.699 47.0865C60.9861 48.8839 60.387 45.934 60.387 45.934C69.5862 32.2837 73.432 14.9566 70.1136 10.7159C61.0597 -0.851953 45.3873 4.61895 45.1257 4.76074L45.0416 4.77598C43.3201 4.41855 41.3938 4.20586 39.2285 4.17041C35.2863 4.10596 32.2957 5.204 30.0264 6.9249C30.0264 6.9249 2.06836 -4.59287 3.36885 21.4104C3.64541 26.9423 11.2978 63.2678 20.4249 52.2958C23.7609 48.2836 26.9845 44.8913 26.9845 44.8913C28.5853 45.9548 30.5019 46.4974 32.511 46.3025L32.6672 46.1701C32.6186 46.6682 32.6408 47.1554 32.7296 47.7322C30.3782 50.3593 31.0693 50.8204 26.3689 51.7881C21.6126 52.7684 24.4066 54.5133 26.231 54.9697C28.4426 55.5226 33.559 56.306 37.016 51.4664L36.8783 52.0187C37.7994 52.7566 38.4463 56.8184 38.3379 60.5007C38.2295 64.1827 38.1571 66.7107 38.8828 68.6854C39.6091 70.66 40.3324 75.1028 46.5117 73.7789C51.6747 72.6724 54.3504 69.8051 54.7228 65.0221C54.9867 61.6219 55.5847 62.1246 55.6222 59.0845L56.1018 57.6454C56.6546 53.0361 56.1896 51.549 59.3704 52.2407L60.1438 52.3087C62.4847 52.415 65.5491 51.9319 67.3477 51.0961C71.2201 49.299 73.517 46.2981 69.6984 47.0865H69.699" fill="#336791"/>
<path d="M31.6629 23.8843C30.8777 23.775 30.1667 23.8761 29.8069 24.1485C29.6048 24.3018 29.5421 24.4793 29.5251 24.6015C29.48 24.9252 29.7067 25.2832 29.8462 25.4678C30.2405 25.9904 30.8165 26.3496 31.3866 26.4287C31.4692 26.4404 31.5516 26.4457 31.6333 26.4457C32.584 26.4457 33.4485 25.7054 33.5247 25.159C33.6199 24.4746 32.6265 24.0185 31.6629 23.8846M57.6738 23.906C57.5988 23.3695 56.6443 23.2166 55.7385 23.3426C54.8338 23.4686 53.9566 23.877 54.0299 24.4146C54.0885 24.8326 54.8435 25.5463 55.737 25.5463C55.8126 25.5463 55.8888 25.5413 55.9655 25.5305C56.562 25.4479 56.9997 25.069 57.2077 24.8508C57.5241 24.518 57.7075 24.1471 57.6738 23.906" fill="white"/>
<path d="M72.5982 46.8823C72.266 45.8777 71.1967 45.5546 69.4201 45.9214C64.1452 47.0101 62.2562 46.256 61.6359 45.7992C65.736 39.5531 69.109 32.0027 70.9286 24.9583C71.7905 21.6214 72.2666 18.5224 72.3056 15.9964C72.3486 13.224 71.8764 11.1867 70.9025 9.94219C66.9762 4.9251 61.2135 2.23389 54.2379 2.16006C49.4423 2.10615 45.3905 3.3334 44.6051 3.67852C42.951 3.26719 41.1478 3.01465 39.1846 2.98242C35.5846 2.92412 32.4727 3.78604 29.8963 5.54297C28.7771 5.12637 25.885 4.1335 22.3479 3.56367C16.2331 2.5793 11.3739 3.3252 7.90634 5.78174C3.76875 8.71318 1.85859 13.9532 2.22861 21.356C2.35312 23.8465 3.77226 31.5082 6.01172 38.8456C8.95957 48.503 12.1641 53.9701 15.5355 55.0948C15.9302 55.2264 16.3852 55.3184 16.887 55.3184C18.1169 55.3184 19.6248 54.7641 21.1937 52.8779C23.1072 50.5824 25.0866 48.3426 27.1295 46.1613C28.4549 46.8727 29.9109 47.2699 31.4001 47.3098C31.403 47.3487 31.4068 47.3877 31.4103 47.4264C31.154 47.732 30.903 48.0422 30.6574 48.3565C29.6256 49.6664 29.4108 49.9392 26.0895 50.6229C25.1446 50.8181 22.6353 51.3352 22.5984 53.0941C22.5586 55.016 25.5647 55.8231 25.9072 55.9087C27.1008 56.2075 28.2507 56.3549 29.3473 56.3549C32.0142 56.3549 34.3611 55.4783 36.2367 53.7823C36.179 60.6337 36.4646 67.3849 37.2873 69.4418C37.9611 71.1258 39.607 75.2411 44.8061 75.2408C45.5689 75.2408 46.4086 75.1521 47.3323 74.954C52.7584 73.7909 55.1147 71.3927 56.0262 66.1055C56.514 63.2798 57.351 56.5324 57.7447 52.9131C58.5756 53.1724 59.6452 53.291 60.8016 53.2907C63.2133 53.2907 65.9962 52.7783 67.7414 51.9683C69.702 51.0577 73.2398 48.8235 72.5982 46.8823V46.8823ZM59.6766 22.4253C59.6587 23.4937 59.5116 24.4638 59.3558 25.4763C59.1879 26.5652 59.0145 27.6911 58.9708 29.0578C58.9277 30.3879 59.0938 31.7707 59.2544 33.1081C59.579 35.8093 59.9121 38.5901 58.6228 41.3341C58.4086 40.9546 58.2178 40.5623 58.0515 40.1596C57.8912 39.7711 57.5432 39.1471 57.0612 38.2834C55.1865 34.9213 50.7964 27.048 53.0437 23.8354C53.7132 22.8791 55.4121 21.8959 59.6766 22.4253V22.4253ZM54.5074 4.32363C60.7576 4.46162 65.7018 6.7998 69.2021 11.2729C71.8869 14.7038 68.9306 30.3152 60.3721 43.7833C60.286 43.6739 60.1995 43.5648 60.1125 43.4561L60.0041 43.3207C62.2157 39.6683 61.7833 36.0545 61.3983 32.8506C61.2401 31.5357 61.0907 30.2938 61.1288 29.1272C61.1681 27.8909 61.3315 26.8304 61.4897 25.805C61.684 24.5414 61.8817 23.2339 61.8272 21.6926C61.868 21.5309 61.8844 21.3398 61.863 21.1131C61.7238 19.6351 60.0363 15.2115 56.5969 11.2078C54.7154 9.01787 51.9718 6.56719 48.2256 4.91426C49.8369 4.58027 52.0403 4.26885 54.5074 4.32363V4.32363ZM19.5334 51.4975C17.8049 53.5758 16.6113 53.1773 16.2187 53.0467C13.6611 52.1936 10.6934 46.7877 8.07685 38.2154C5.81279 30.798 4.48974 23.3394 4.38486 21.2479C4.05439 14.6332 5.65781 10.0233 9.15088 7.546C14.8356 3.51475 24.1819 5.92764 27.9375 7.15137C27.8836 7.20469 27.8273 7.25449 27.774 7.30869C21.6111 13.5325 21.7573 24.1661 21.7726 24.8162C21.772 25.067 21.7931 25.4221 21.8218 25.9104C21.9278 27.699 22.1253 31.0277 21.5979 34.7974C21.1081 38.3004 22.188 41.729 24.5602 44.2043C24.8036 44.4578 25.0595 44.6992 25.3269 44.9273C24.271 46.0582 21.9762 48.559 19.5334 51.4975V51.4975ZM26.119 42.7104C24.2071 40.7153 23.3388 37.9403 23.7363 35.0962C24.293 31.1142 24.0876 27.646 23.9771 25.7827C23.9616 25.522 23.9478 25.2935 23.9399 25.1133C24.8402 24.3149 29.0124 22.0796 31.9878 22.7613C33.3454 23.0722 34.1728 23.9968 34.5167 25.587C36.2968 33.8203 34.7522 37.2519 33.5112 40.0096C33.2555 40.5776 33.0138 41.1146 32.8075 41.6701L32.6476 42.0996C32.2427 43.1853 31.8659 44.1949 31.6324 45.1535C29.5998 45.1477 27.6226 44.2793 26.119 42.7102V42.7104ZM26.4311 53.814C25.8375 53.6657 25.3037 53.4082 24.9905 53.1946C25.2521 53.0716 25.7177 52.904 26.5251 52.7376C30.4324 51.9334 31.0359 51.3656 32.3537 49.6925C32.6558 49.3087 32.9982 48.8739 33.4726 48.3442L33.4731 48.3437C34.1795 47.5526 34.5026 47.6868 35.0886 47.93C35.5635 48.1263 36.0261 48.7216 36.2136 49.3767C36.3023 49.686 36.402 50.2731 36.0759 50.7302C33.3231 54.5845 29.3118 54.535 26.4311 53.814V53.814ZM46.88 72.8429C42.0999 73.8671 40.4074 71.4281 39.2921 68.6399C38.5723 66.8399 38.2184 58.7229 38.4694 49.759C38.4727 49.6397 38.4557 49.5246 38.4228 49.4162C38.3935 49.2022 38.3489 48.9905 38.2893 48.7828C37.916 47.4785 37.0063 46.3875 35.915 45.9352C35.4814 45.7556 34.6857 45.426 33.7295 45.6706C33.9334 44.8304 34.287 43.8814 34.6705 42.854L34.8313 42.4219C35.0124 41.9347 35.2397 41.4299 35.48 40.8955C36.7787 38.0103 38.5573 34.0585 36.6269 25.1309C35.9039 21.7869 33.4893 20.1539 29.8289 20.5333C27.6346 20.7604 25.6269 21.6457 24.6255 22.1534C24.4102 22.2624 24.2133 22.3679 24.0293 22.4704C24.3088 19.1013 25.3646 12.8048 29.3144 8.821C31.8015 6.31318 35.1135 5.07451 39.1488 5.14131C47.1 5.27139 52.1988 9.35186 55.0764 12.7523C57.5561 15.6823 58.8987 18.634 59.4346 20.226C55.4048 19.8161 52.6641 20.6115 51.2748 22.5979C48.2522 26.9186 52.9283 35.3045 55.1757 39.3349C55.5879 40.0734 55.9436 40.7118 56.0555 40.9831C56.7873 42.7567 57.7348 43.9409 58.4265 44.8052C58.6386 45.07 58.8442 45.327 59.0007 45.5514C57.7802 45.9032 55.5879 46.7162 55.7877 50.78C55.6266 52.819 54.4808 62.3657 53.8986 65.7387C53.1302 70.1947 51.4904 71.8544 46.88 72.8432V72.8429ZM66.8323 50.0101C65.5843 50.5893 63.4957 51.0237 61.5117 51.1172C59.3203 51.2197 58.2047 50.8717 57.9422 50.6575C57.8191 48.1251 58.7616 47.8605 59.7592 47.5805C59.9159 47.5365 60.0688 47.4935 60.2165 47.4419C60.3082 47.5166 60.4087 47.5907 60.5188 47.6634C62.2802 48.8259 65.4217 48.9513 69.8569 48.0357L69.9056 48.0261C69.3073 48.5854 68.2837 49.3359 66.8323 50.0101Z" fill="white"/>
</g>
<defs>
<clipPath id="clip0_28_74">
<rect width="75" height="77.3438" fill="white"/>
</clipPath>
</defs>
</svg>
