<svg width="341" height="341" viewBox="0 0 341 341" fill="none" xmlns="http://www.w3.org/2000/svg">
<path d="M170.5 196.864C185.213 196.864 197.141 184.936 197.141 170.223C197.141 155.51 185.213 143.582 170.5 143.582C155.787 143.582 143.859 155.51 143.859 170.223C143.859 184.936 155.787 196.864 170.5 196.864Z" fill="#00D8FF"/>
<path d="M170.5 231.305C138.479 232.079 106.539 227.763 75.8725 218.517C61.7063 214.026 48.4938 206.952 36.9026 197.652C32.4795 194.475 28.7961 190.379 26.1051 185.644C23.414 180.91 21.7791 175.649 21.3125 170.223C21.3125 152.608 40.6642 135.345 73.0806 124.049C104.567 114.041 137.465 109.19 170.5 109.685C203.094 109.229 235.552 113.993 266.641 123.794C280.284 128.143 293.048 134.875 304.342 143.678C308.69 146.707 312.318 150.655 314.97 155.242C317.622 159.83 319.232 164.944 319.688 170.223C319.688 188.53 298.055 207.083 263.209 218.613C233.137 227.558 201.87 231.838 170.5 231.305ZM170.5 122.43C138.895 122.007 107.424 126.619 77.2685 136.091C47.431 146.502 34.0574 160.739 34.0574 170.191C34.0574 180.08 48.4327 195.627 79.9965 206.422C109.334 215.223 139.88 219.319 170.5 218.56C200.512 219.096 230.43 215.036 259.213 206.518C291.981 195.659 306.9 180.091 306.9 170.223C306.362 166.837 305.128 163.599 303.276 160.714C301.423 157.828 298.993 155.359 296.137 153.461C286.032 145.651 274.63 139.685 262.453 135.835C232.711 126.498 201.669 121.972 170.5 122.43Z" fill="#00D8FF"/>
<path d="M109.972 303.096C105.001 303.21 100.089 302.004 95.7357 299.6C80.476 290.798 75.1905 265.415 81.5949 231.688C88.6562 199.411 100.891 168.489 117.826 140.119C133.712 111.657 154.049 85.9204 178.066 63.8842C188.649 54.2371 200.858 46.5416 214.127 41.1544C218.926 38.9053 224.161 37.7394 229.461 37.7394C234.761 37.7394 239.996 38.9053 244.795 41.1544C260.663 50.2974 265.916 78.3021 258.51 114.246C251.231 144.771 239.313 174 223.174 200.913C207.847 229.039 188.151 254.551 164.82 276.498C153.853 286.523 141.124 294.432 127.278 299.824C121.735 301.882 115.884 302.988 109.972 303.096ZM128.866 146.449C112.712 173.615 100.986 203.18 94.1267 234.032C88.2337 265.095 93.8922 283.776 102.119 288.529C110.644 293.462 131.338 288.784 156.466 266.832C178.738 245.807 197.537 221.386 212.166 194.476C227.627 168.747 239.059 140.802 246.063 111.614C253.033 77.7799 247.012 57.0642 238.466 52.141C235.262 50.9137 231.839 50.3643 228.413 50.5275C224.987 50.6907 221.632 51.5631 218.56 53.0894C206.749 57.963 195.891 64.8819 186.484 73.5281C163.538 94.6358 144.112 119.275 128.941 146.513L128.866 146.449Z" fill="#00D8FF"/>
<path d="M230.995 303.234C216.556 303.234 198.217 294.496 179.121 278.075C154.683 255.838 134.002 229.795 117.879 200.956C101.157 172.976 89.0188 142.501 81.9252 110.686C78.8488 96.6893 78.2788 82.2576 80.2415 68.0614C80.6953 62.7952 82.2989 57.6926 84.9392 53.1135C87.5794 48.5344 91.1922 44.5903 95.5226 41.5593C111.368 32.3843 138.254 41.8151 165.694 66.1753C188.505 87.7242 207.876 112.644 223.131 140.066C239.843 167.392 252.109 197.2 259.469 228.374C262.678 242.885 263.173 257.864 260.929 272.555C260.395 277.973 258.696 283.211 255.948 287.91C253.2 292.61 249.468 296.659 245.008 299.782C240.726 302.155 235.89 303.347 230.995 303.234ZM128.909 194.54C144.375 222.102 164.131 247.026 187.433 268.378C211.399 288.997 230.409 293.43 238.583 288.624C247.108 283.669 253.395 263.444 246.916 230.718C239.818 200.955 228.053 172.502 212.059 146.417C197.501 120.172 179.012 96.3097 157.233 75.6593C131.402 52.7271 110.452 47.6014 101.916 52.5459C99.2559 54.7079 97.0727 57.398 95.5045 60.4463C93.9363 63.4947 93.0172 66.8351 92.8052 70.2566C91.1109 82.9172 91.6629 95.7773 94.4357 108.246C101.259 138.671 112.9 167.81 128.919 194.562L128.909 194.54Z" fill="#00D8FF"/>
</svg>
