<svg width="75" height="72" viewBox="0 0 75 72" fill="none" xmlns="http://www.w3.org/2000/svg">
<g clip-path="url(#clip0_49_32)">
<path d="M51.9671 49.7265C54.7348 49.4399 56.8345 47.054 56.739 44.1905C56.6438 41.3273 54.2575 39.0366 51.3943 39.0366H51.2036C48.2446 39.1321 45.9542 41.6136 46.0497 44.5723C46.1452 46.004 46.7177 47.2447 47.5767 48.1037C44.3317 54.4986 39.3689 59.1753 31.9245 63.0885C26.8661 65.7609 21.617 66.7154 16.3679 66.0475C12.073 65.4747 8.73253 63.566 6.63253 60.416C3.57862 55.7394 3.29239 50.6807 5.86934 45.6223C7.68282 41.9953 10.5457 39.3229 12.3592 37.9866C11.9774 36.7459 11.4047 34.6462 11.1185 33.1192C-2.7205 43.1408 -1.28876 56.6938 2.91065 63.0885C6.06007 67.8609 12.4547 70.8196 19.5173 70.8196C21.426 70.8196 23.3347 70.6286 25.2437 70.1517C37.4602 67.7654 46.718 60.5115 51.9671 49.7265V49.7265ZM68.7648 37.8914C61.5111 29.3968 50.8219 24.7201 38.6054 24.7201H37.0784C36.2194 23.0021 34.406 21.8566 32.4018 21.8566H32.2107C29.2524 21.9521 26.9619 24.4336 27.0571 27.3926C27.1526 30.2558 29.5386 32.5465 32.4018 32.5465H32.5925C34.6922 32.451 36.5057 31.1147 37.2691 29.3013H38.9871C46.2407 29.3013 53.1123 31.401 59.3162 35.5052C64.0881 38.6549 67.524 42.7591 69.4327 47.722C71.0552 51.7307 70.9597 55.6438 69.2417 58.9846C66.5695 64.043 62.0839 66.8109 56.1665 66.8109C52.3488 66.8109 48.7222 65.6654 46.8132 64.8064C45.7635 65.7609 43.8545 67.2879 42.5183 68.2427C46.6225 70.1514 50.8219 71.2014 54.8303 71.2014C63.9926 71.2014 70.769 66.1427 73.3459 61.0843C76.1136 55.5483 75.9226 46.004 68.7648 37.8914V37.8914ZM20.2808 51.3486C20.3763 54.2121 22.7622 56.5025 25.6254 56.5025H25.8164C28.7751 56.4073 31.0655 53.9256 30.97 50.9669C30.8748 48.1034 28.4886 45.813 25.6254 45.813H25.4347C25.2437 45.813 24.9571 45.813 24.7667 45.9082C20.8535 39.4181 19.2311 32.3555 19.8038 24.7198C20.1853 18.9932 22.0942 14.03 25.4347 9.92578C28.2024 6.39434 33.547 4.67637 37.1739 4.58115C47.2904 4.39014 51.5851 16.9887 51.8716 22.0474C53.1123 22.3336 55.212 23.0019 56.6438 23.4791C55.4982 8.01738 45.9542 0 36.7922 0C28.2024 0 20.2808 6.20391 17.1311 15.3665C12.7409 27.5833 15.6041 39.3229 20.9487 48.581C20.4718 49.2489 20.1853 50.2989 20.2808 51.3489V51.3486Z" fill="#764ABC"/>
</g>
<defs>
<clipPath id="clip0_49_32">
<rect width="75" height="71.4844" fill="white"/>
</clipPath>
</defs>
</svg>
