<svg width="347" height="371" viewBox="0 0 347 371" fill="none" xmlns="http://www.w3.org/2000/svg">
<g filter="url(#filter0_d_49_38)">
<g clip-path="url(#clip0_49_38)">
<path d="M319.967 241.726C322.735 241.44 324.834 239.054 324.739 236.191C324.644 233.327 322.258 231.037 319.394 231.037H319.204C316.245 231.132 313.954 233.614 314.05 236.572C314.145 238.004 314.718 239.245 315.577 240.104C312.332 246.499 307.369 251.175 299.925 255.088C294.866 257.761 289.617 258.715 284.368 258.047C280.073 257.475 276.733 255.566 274.633 252.416C271.579 247.739 271.292 242.681 273.869 237.622C275.683 233.995 278.546 231.323 280.359 229.987C279.977 228.746 279.405 226.646 279.118 225.119C265.28 235.141 266.711 248.694 270.911 255.088C274.06 259.861 280.455 262.82 287.517 262.82C289.426 262.82 291.335 262.629 293.244 262.152C305.46 259.765 314.718 252.512 319.967 241.726ZM336.765 229.891C329.511 221.397 318.822 216.72 306.605 216.72H305.078C304.219 215.002 302.406 213.857 300.402 213.857H300.211C297.252 213.952 294.962 216.434 295.057 219.393C295.153 222.256 297.539 224.546 300.402 224.546H300.592C302.692 224.451 304.506 223.115 305.269 221.301H306.987C314.241 221.301 321.112 223.401 327.316 227.505C332.088 230.655 335.524 234.759 337.433 239.722C339.055 243.731 338.96 247.644 337.242 250.985C334.57 256.043 330.084 258.811 324.167 258.811C320.349 258.811 316.722 257.665 314.813 256.806C313.763 257.761 311.854 259.288 310.518 260.243C314.622 262.151 318.822 263.201 322.83 263.201C331.993 263.201 338.769 258.143 341.346 253.084C344.114 247.548 343.923 238.004 336.765 229.891ZM288.281 243.349C288.376 246.212 290.762 248.503 293.625 248.503H293.816C296.775 248.407 299.066 245.926 298.97 242.967C298.875 240.103 296.489 237.813 293.625 237.813H293.435C293.244 237.813 292.957 237.813 292.767 237.908C288.854 231.418 287.231 224.355 287.804 216.72C288.185 210.993 290.094 206.03 293.435 201.926C296.202 198.394 301.547 196.676 305.174 196.581C315.29 196.39 319.585 208.989 319.872 214.047C321.112 214.334 323.212 215.002 324.644 215.479C323.498 200.017 313.954 192 304.792 192C296.202 192 288.281 198.204 285.131 207.367C280.741 219.583 283.604 231.323 288.949 240.581C288.472 241.249 288.185 242.299 288.281 243.349V243.349Z" fill="#764ABC"/>
</g>
<g clip-path="url(#clip1_49_38)">
<path d="M290.311 331.735L292.59 339.13C293.102 340.81 293.316 341.982 293.23 342.65C294.477 339.311 295.348 335.673 295.844 331.735H298.584C297.406 338.146 295.852 342.805 293.922 345.711C292.419 347.951 290.772 349.07 288.979 349.07C288.501 349.07 287.911 348.926 287.212 348.639V347.094C287.554 347.144 287.955 347.171 288.416 347.171C289.252 347.171 289.927 346.939 290.44 346.476C291.054 345.912 291.361 345.278 291.361 344.576C291.361 344.096 291.121 343.112 290.644 341.623L287.468 331.735H290.311H290.311ZM272.867 327.189L277.041 339.927H277.067L281.268 327.189H284.7C285.451 333.506 285.895 339.286 286.031 344.525H283.138C283.036 339.628 282.754 335.023 282.293 330.709H282.268L277.862 344.525H275.658L271.279 330.709H271.253C270.928 334.852 270.724 339.457 270.638 344.525H268C268.171 338.361 268.597 332.583 269.28 327.189H272.867H272.867Z" fill="#00758F"/>
<path d="M319.635 326.932C324.126 326.932 326.372 329.801 326.372 335.536C326.372 338.653 325.696 341.007 324.347 342.598C324.104 342.888 323.835 343.139 323.552 343.372L326.73 344.943L326.727 344.943L325.599 346.892L321.46 344.477C320.774 344.68 320.019 344.782 319.197 344.782C316.992 344.782 315.345 344.139 314.256 342.855C313.06 341.435 312.463 339.2 312.463 336.153C312.463 333.054 313.137 330.708 314.487 329.116C315.716 327.659 317.433 326.932 319.635 326.932V326.932ZM305.883 326.957C307.489 326.957 308.948 327.387 310.262 328.243L309.595 329.731C308.47 329.252 307.361 329.012 306.267 329.012C305.38 329.012 304.696 329.226 304.219 329.656C303.74 330.082 303.444 330.63 303.444 331.298C303.444 332.325 304.175 333.215 305.526 333.968C305.968 334.21 306.409 334.454 306.849 334.702L306.95 334.758L307 334.787L307.101 334.844L307.151 334.872L307.252 334.929C308.275 335.505 309.237 336.055 309.237 336.055C310.587 337.014 311.261 338.036 311.261 339.72C311.261 341.19 310.722 342.397 309.648 343.341C308.573 344.282 307.129 344.753 305.321 344.753C303.63 344.753 301.991 344.21 300.403 343.134L301.146 341.645C302.512 342.33 303.748 342.672 304.859 342.672C305.9 342.672 306.715 342.44 307.305 341.98C307.893 341.518 308.246 340.873 308.246 340.055C308.246 339.026 307.53 338.146 306.216 337.408C305.805 337.181 305.395 336.951 304.986 336.72L304.886 336.663C304.701 336.558 304.515 336.453 304.332 336.349L304.233 336.293C303.346 335.788 302.58 335.348 302.58 335.348C301.266 334.387 300.608 333.356 300.608 331.658C300.608 330.254 301.099 329.119 302.08 328.255C303.062 327.39 304.331 326.957 305.883 326.957ZM331.649 327.189V342.393H337.104V344.525H328.883V327.189H331.649ZM340.135 342.399V342.76H339.535V344.523H339.077V342.76H338.454V342.399H340.135H340.135ZM341.243 342.399L341.818 343.847L342.347 342.399H342.997V344.523H342.565V342.907L341.963 344.523H341.652L341.049 342.907H341.025V344.523H340.617V342.399H341.243H341.243ZM319.353 329.064C316.707 329.064 315.383 331.248 315.383 335.613C315.383 338.114 315.734 339.927 316.434 341.057C317.083 342.103 318.098 342.625 319.482 342.625C322.128 342.625 323.452 340.424 323.452 336.024C323.452 333.558 323.101 331.761 322.402 330.63C321.752 329.586 320.737 329.064 319.353 329.064H319.353Z" fill="#F29111"/>
<path d="M312.417 299.074C313.295 296.917 316.364 298.551 317.555 299.304C317.847 299.493 318.182 299.891 318.517 300.038C319.039 300.059 319.561 300.1 320.084 300.121C321.065 300.352 321.984 300.54 322.757 300.981C326.35 303.097 328.689 305.253 330.842 308.815C331.302 309.569 331.532 310.385 331.907 311.202C332.429 312.418 333.015 313.696 333.62 314.846C333.891 315.392 334.101 315.999 334.477 316.459C334.624 316.67 335.041 316.732 335.291 316.858C335.98 317.215 336.816 317.486 337.465 317.905C338.676 318.66 339.847 319.56 340.912 320.481C341.308 320.837 341.579 321.341 341.957 321.717V321.907C341.621 322.01 341.287 322.115 340.952 322.2C340.221 322.387 339.573 322.345 338.864 322.533C338.426 322.66 337.882 322.828 337.422 322.87L337.465 322.913C337.735 323.686 339.198 324.314 339.867 324.776C340.68 325.363 341.433 326.074 342.039 326.891C342.248 327.1 342.458 327.289 342.666 327.497C342.812 327.708 342.853 327.98 343 328.168V328.232C342.837 328.174 342.719 328.064 342.608 327.949L342.542 327.88C342.476 327.811 342.409 327.744 342.332 327.688C341.871 327.373 341.413 326.996 340.952 326.703C340.159 326.2 339.24 325.908 338.426 325.403C337.966 325.11 337.527 324.776 337.088 324.441C336.69 324.147 336.252 323.582 336.003 323.163C335.855 322.932 335.835 322.66 335.667 322.492C335.697 322.213 335.953 322.13 336.212 322.062L336.271 322.046C336.36 322.023 336.448 322 336.524 321.969C337.61 321.508 338.905 321.341 340.577 321.382C340.514 320.963 339.469 320.44 339.135 320.188C338.466 319.706 337.757 319.202 337.047 318.763C336.671 318.533 336.022 318.365 335.605 318.177C335.041 317.947 333.787 317.716 333.475 317.277C332.944 316.585 332.562 315.759 332.192 314.925L332.091 314.697C332.058 314.621 332.024 314.546 331.99 314.47C331.553 313.465 331.009 312.418 330.57 311.39C330.341 310.888 330.235 310.448 329.984 309.966C328.46 307.014 326.203 304.541 323.468 302.803C322.569 302.237 321.566 301.714 320.46 301.358C319.833 301.168 319.08 301.273 318.412 301.128H317.972C317.597 301.022 317.284 300.624 316.991 300.414C316.344 299.975 315.696 299.68 314.923 299.367C314.652 299.241 313.878 298.949 313.608 299.179C313.441 299.221 313.356 299.284 313.315 299.452C313.148 299.703 313.295 300.08 313.398 300.311C313.712 300.98 314.15 301.378 314.548 301.944C314.902 302.446 315.342 303.011 315.592 303.557C316.134 304.729 316.386 306.029 316.888 307.201C317.074 307.642 317.368 308.144 317.639 308.541C317.868 308.857 318.286 309.085 318.412 309.485C318.664 309.904 318.035 311.286 317.89 311.725C317.346 313.443 317.451 315.831 318.078 317.32L318.111 317.398L318.145 317.478C318.373 318.023 318.618 318.611 319.227 318.763C319.269 318.722 319.227 318.743 319.31 318.722C319.457 317.569 319.498 316.459 319.896 315.557C320.125 314.994 320.583 314.595 320.898 314.135C321.107 314.26 321.107 314.638 321.232 314.888C321.504 315.537 321.796 316.249 322.131 316.9C322.819 318.24 323.593 319.539 324.47 320.712C324.764 321.131 325.18 321.592 325.556 321.969C325.724 322.115 325.911 322.199 326.037 322.387H326.078V322.45C325.451 322.219 325.054 321.571 324.554 321.193C323.613 320.481 322.486 319.413 321.838 318.387C321.566 317.799 321.273 317.235 320.981 316.649V316.607C320.856 316.774 320.898 316.94 320.835 317.193C320.564 318.24 320.773 319.434 319.833 319.81C318.767 320.251 317.972 319.099 317.639 318.575C316.573 316.837 316.281 313.905 317.033 311.538C317.2 311.014 317.222 310.385 317.514 309.967C317.451 309.589 317.159 309.485 316.991 309.254C316.698 308.857 316.448 308.396 316.219 307.956C315.779 307.097 315.467 306.07 315.133 305.149C314.986 304.772 314.944 304.394 314.798 304.038C314.548 303.494 314.088 302.949 313.733 302.468C313.252 301.777 311.852 300.436 312.417 299.074ZM319.268 303.178C319.324 303.234 319.391 303.283 319.461 303.331L319.545 303.389C319.657 303.466 319.766 303.548 319.832 303.659C319.938 303.807 319.957 303.952 320.084 304.1C320.084 304.603 319.938 304.938 319.643 305.147C319.643 305.147 319.623 305.169 319.602 305.189C319.435 304.854 319.289 304.52 319.121 304.184C318.914 303.892 318.621 303.66 318.452 303.325H318.412V303.283C318.664 303.221 318.914 303.178 319.268 303.178Z" fill="#00758F"/>
</g>
<g clip-path="url(#clip2_49_38)">
<path d="M283.578 103C279.298 103 276.132 106.746 276.273 110.808C276.41 114.71 276.233 119.765 274.96 123.886C273.684 128.02 271.526 130.639 268 130.975V134.771C271.526 135.107 273.684 137.726 274.96 141.86C276.233 145.981 276.41 151.035 276.273 154.938C276.132 159 279.298 162.746 283.578 162.746H327.428C331.708 162.746 334.873 159 334.732 154.938C334.596 151.036 334.772 145.981 336.045 141.86C337.322 137.726 339.474 135.107 343 134.771V130.975C339.474 130.639 337.322 128.02 336.045 123.886C334.772 119.765 334.596 114.71 334.732 110.808C334.873 106.746 331.708 103 327.428 103H283.577H283.578ZM318.848 139.777C318.848 145.371 314.676 148.763 307.752 148.763H295.966C295.629 148.763 295.306 148.629 295.068 148.39C294.829 148.152 294.695 147.828 294.695 147.491V118.254C294.695 118.087 294.728 117.922 294.792 117.768C294.856 117.613 294.949 117.473 295.068 117.355C295.186 117.237 295.326 117.144 295.48 117.08C295.634 117.016 295.8 116.983 295.967 116.983H307.685C313.458 116.983 317.247 120.11 317.247 124.911C317.247 128.281 314.698 131.298 311.451 131.827V132.003C315.871 132.488 318.848 135.549 318.848 139.777ZM306.467 121.013H299.747V130.505H305.407C309.782 130.505 312.195 128.743 312.195 125.593C312.195 122.642 310.12 121.013 306.467 121.013H306.467ZM299.747 134.271V144.732H306.714C311.269 144.732 313.683 142.904 313.683 139.468C313.683 136.033 311.202 134.271 306.421 134.271H299.747V134.271Z" fill="#7E13F8"/>
</g>
<g clip-path="url(#clip3_49_38)">
<path d="M332.093 14.7021L327.265 68.7935L305.56 74.8105L283.916 68.8018L279.092 14.7021H332.093Z" fill="#E44D26"/>
<path d="M305.593 70.2112L323.131 65.3491L327.257 19.1254H305.593V70.2112Z" fill="#F16529"/>
<path d="M296.206 32.3959H305.593V25.7607H288.955L289.114 27.5408L290.745 45.8254H305.593V39.1903H296.813L296.206 32.3959ZM297.702 49.1431H291.041L291.971 59.5612L305.562 63.3341L305.593 63.3258V56.4224L305.564 56.4301L298.174 54.4348L297.702 49.1431Z" fill="#EBEBEB"/>
<path d="M284.024 0H287.395V3.33137H290.48V0H293.852V10.0882H290.48V6.71011H287.396V10.0882H284.024V0H284.024ZM298.286 3.3455H295.318V0H304.628V3.3455H301.659V10.0882H298.287V3.3455H298.286H298.286ZM306.106 0H309.622L311.785 3.54474L313.945 0H317.463V10.0882H314.104V5.08795L311.785 8.67486H311.726L309.405 5.08795V10.0882H306.106V0ZM319.141 0H322.514V6.75374H327.255V10.0882H319.14V0H319.141Z" fill="black"/>
<path d="M305.57 45.8254H313.74L312.97 54.4307L305.57 56.4281V63.331L319.172 59.5612L319.272 58.4402L320.831 40.972L320.993 39.1903H305.57V45.8254ZM305.57 32.3796V32.3959H321.597L321.73 30.9046L322.032 27.5408L322.191 25.7607H305.57V32.3799V32.3796Z" fill="white"/>
</g>
</g>
<g filter="url(#filter1_d_49_38)">
<g clip-path="url(#clip4_49_38)">
<path d="M9.81383 316.023C9.05211 315.119 8.39601 314.201 8.26212 314.01C8.25893 314.007 8.2551 314.004 8.25086 314.003C8.24662 314.001 8.24205 314 8.23744 314C8.23282 314 8.22826 314.001 8.22402 314.003C8.21977 314.004 8.21594 314.007 8.21276 314.01C8.07872 314.201 7.42277 315.119 6.66105 316.023C0.122718 324.362 7.69083 329.989 7.69083 329.989L7.75426 330.031C7.81066 330.9 7.95172 332.15 7.95172 332.15H8.51598C8.51598 332.15 8.65704 330.907 8.71344 330.031L8.77701 329.982C8.78405 329.989 16.352 324.362 9.81383 316.023ZM8.23385 329.862C8.23385 329.862 7.89532 329.572 7.80363 329.424V329.41L8.21276 320.33C8.21276 320.302 8.25509 320.302 8.25509 320.33L8.66407 329.41V329.424C8.57238 329.572 8.23385 329.862 8.23385 329.862Z" fill="#01EC64"/>
<path d="M22.397 328.009L19.2432 320.307L19.2363 320.285H16.7827V320.803H17.1785C17.2987 320.803 17.4118 320.853 17.4968 320.938C17.5816 321.023 17.6241 321.136 17.6241 321.257L17.5533 329.009C17.5533 329.25 17.3554 329.449 17.1149 329.456L16.7119 329.463V329.974H19.102V329.463L18.8544 329.456C18.614 329.449 18.416 329.25 18.416 329.009V321.704L21.8525 329.974C21.902 330.094 22.0151 330.172 22.1425 330.172C22.2697 330.172 22.3828 330.094 22.4323 329.974L25.7912 321.888L25.8407 329.009C25.8407 329.257 25.6426 329.456 25.3951 329.463H25.1405V329.974H27.9407V329.463H27.5588C27.3186 329.463 27.1204 329.257 27.1135 329.016L27.0921 321.264C27.092 321.146 27.1377 321.033 27.2195 320.948C27.3013 320.864 27.4128 320.814 27.5305 320.81L27.9407 320.803V320.285H25.5506L22.3968 328.009L22.397 328.009ZM44.3862 329.328C44.3083 329.25 44.2656 329.144 44.2656 329.016V325.208C44.2656 324.483 44.0531 323.914 43.6277 323.509C43.2093 323.104 42.6281 322.898 41.905 322.898C40.8911 322.898 40.0901 323.311 39.5299 324.12C39.5229 324.135 39.5017 324.142 39.4804 324.142C39.459 324.142 39.445 324.127 39.445 324.106L39.1826 323.09H38.743L37.6158 323.737V324.092H37.9064C38.0412 324.092 38.1546 324.127 38.2327 324.199C38.3106 324.27 38.3531 324.376 38.3531 324.525V329.008C38.3531 329.136 38.3106 329.243 38.2327 329.321C38.1546 329.399 38.0482 329.442 37.9207 329.442H37.6371V329.96H40.2317V329.442H39.9483C39.8206 329.442 39.7142 329.399 39.6363 329.321C39.5584 329.243 39.5157 329.136 39.5157 329.008V326.039C39.5157 325.662 39.6008 325.286 39.7568 324.916C39.9199 324.554 40.1608 324.248 40.4799 324.014C40.7989 323.779 41.1818 323.666 41.6213 323.666C42.1176 323.666 42.4933 323.822 42.7272 324.135C42.9612 324.447 43.0817 324.852 43.0817 325.335V329.001C43.0817 329.129 43.0393 329.236 42.9612 329.314C42.8833 329.392 42.7769 329.435 42.6492 329.435H42.3657V329.953H44.9604V329.435H44.677C44.5706 329.449 44.4713 329.406 44.3862 329.328ZM68.0922 320.865C67.375 320.483 66.5734 320.285 65.7085 320.285H62.3335V320.802H62.6638C62.7903 320.802 62.9028 320.851 63.0153 320.964C63.1208 321.07 63.1771 321.191 63.1771 321.318V328.928C63.1771 329.055 63.121 329.175 63.0153 329.282C62.9099 329.388 62.7903 329.444 62.6638 329.444H62.3333V329.96H65.7085C66.5734 329.96 67.375 329.762 68.0922 329.38C68.8094 328.999 69.393 328.433 69.8148 327.711C70.2369 326.99 70.4548 326.12 70.4548 325.13C70.4548 324.14 70.2369 323.277 69.815 322.549C69.3861 321.813 68.8094 321.254 68.0923 320.865H68.0922ZM69.0978 325.116C69.0978 326.021 68.9361 326.785 68.6195 327.4C68.3031 328.015 67.8813 328.475 67.3609 328.772C66.8406 329.069 66.2639 329.218 65.6452 329.218H64.9631C64.8366 329.218 64.7241 329.168 64.6116 329.055C64.5061 328.949 64.4499 328.829 64.4499 328.702V321.523C64.4499 321.396 64.4991 321.283 64.6116 321.169C64.717 321.063 64.8366 321.007 64.9631 321.007H65.6452C66.2639 321.007 66.8405 321.155 67.3609 321.452C67.8813 321.749 68.3031 322.209 68.6195 322.824C68.9359 323.447 69.0978 324.218 69.0978 325.116ZM78.433 325.632C78.1208 325.271 77.5183 324.967 76.8099 324.805C77.7881 324.317 78.2909 323.631 78.2909 322.746C78.2909 322.266 78.1639 321.834 77.9083 321.466C77.6534 321.099 77.2916 320.802 76.8312 320.596C76.37 320.391 75.8313 320.285 75.2217 320.285H71.4013V320.802H71.706C71.8335 320.802 71.9471 320.851 72.0605 320.964C72.1668 321.07 72.2235 321.191 72.2235 321.318V328.928C72.2235 329.055 72.1668 329.175 72.0605 329.282C71.9541 329.388 71.8335 329.444 71.706 329.444H71.3729V329.96H75.5198C76.1504 329.96 76.7386 329.854 77.2705 329.642C77.8022 329.43 78.2275 329.119 78.5324 328.709C78.844 328.298 79 327.796 79 327.216C78.993 326.594 78.8086 326.063 78.433 325.632ZM73.6766 329.062C73.5703 328.956 73.5136 328.836 73.5136 328.709V325.292H75.4844C76.1786 325.292 76.7103 325.469 77.079 325.823C77.4476 326.177 77.632 326.636 77.632 327.202C77.632 327.541 77.5464 327.874 77.3912 328.178C77.228 328.489 76.9864 328.737 76.6609 328.928C76.3416 329.119 75.9448 329.218 75.4844 329.218H74.0308C73.9034 329.218 73.7898 329.168 73.6765 329.062L73.6766 329.062ZM73.5208 324.564V321.53C73.5208 321.403 73.5703 321.29 73.6836 321.176C73.79 321.07 73.9106 321.014 74.0381 321.014H74.9739C75.6468 321.014 76.1434 321.184 76.4556 321.509C76.767 321.841 76.923 322.266 76.923 322.789C76.923 323.327 76.774 323.758 76.4837 324.083C76.1928 324.401 75.7535 324.564 75.1724 324.564H73.5208ZM34.5083 323.349C33.9666 323.053 33.3616 322.898 32.7074 322.898C32.0705 322.898 31.4736 323.039 30.949 323.326L30.9067 323.349C30.365 323.645 29.9359 324.075 29.6194 324.618C29.303 325.161 29.1411 325.795 29.1411 326.5C29.1411 327.205 29.3028 327.839 29.6194 328.382C29.9359 328.925 30.365 329.355 30.9067 329.651C31.4484 329.947 32.0534 330.102 32.7074 330.102C33.3445 330.102 33.9414 329.961 34.4658 329.674L34.5083 329.651C35.0499 329.355 35.4791 328.925 35.7956 328.382C36.112 327.839 36.2739 327.205 36.2739 326.5C36.2739 325.795 36.112 325.161 35.7956 324.618C35.4791 324.075 35.05 323.645 34.5083 323.35V323.349ZM35.0288 326.5C35.0288 327.367 34.8178 328.072 34.3957 328.579C33.9807 329.087 33.411 329.347 32.7074 329.347C32.0166 329.347 31.4547 329.096 31.0416 328.606L31.0193 328.579C30.5972 328.072 30.3861 327.367 30.3861 326.5C30.3861 325.649 30.5897 324.954 30.9965 324.449L31.0193 324.421C31.4342 323.913 32.0042 323.652 32.7074 323.652C33.411 323.652 33.9807 323.913 34.3957 324.421C34.8178 324.928 35.0288 325.633 35.0288 326.5ZM59.4376 323.349C58.8959 323.053 58.2911 322.898 57.6369 322.898C57 322.898 56.4029 323.039 55.8785 323.326L55.836 323.349C55.2944 323.645 54.8654 324.075 54.5488 324.618C54.2323 325.161 54.0704 325.795 54.0704 326.5C54.0704 327.205 54.2323 327.839 54.5488 328.382C54.8652 328.925 55.2944 329.355 55.8361 329.651C56.3777 329.947 56.9827 330.102 57.6369 330.102C58.2738 330.102 58.8709 329.961 59.3953 329.674L59.4377 329.651C59.9793 329.355 60.4084 328.925 60.7249 328.382C61.0415 327.839 61.2032 327.205 61.2032 326.5C61.2032 325.795 61.0415 325.161 60.7249 324.618C60.4085 324.075 59.9723 323.645 59.4376 323.35V323.349ZM59.9582 326.5C59.9582 327.367 59.7471 328.072 59.3251 328.579C58.91 329.087 58.3403 329.347 57.6369 329.347C56.9459 329.347 56.384 329.096 55.9711 328.606L55.9486 328.579C55.5266 328.072 55.3155 327.367 55.3155 326.5C55.3155 325.642 55.519 324.954 55.9258 324.449L55.9486 324.421C56.3636 323.913 56.9335 323.652 57.6369 323.652C58.3403 323.652 58.91 323.913 59.3251 324.421C59.7401 324.928 59.9582 325.633 59.9582 326.5ZM49.3841 322.898C48.8172 322.898 48.3001 323.019 47.8325 323.259C47.3649 323.5 46.9965 323.826 46.7345 324.244C46.4738 324.649 46.336 325.121 46.3378 325.603C46.3378 326.042 46.437 326.446 46.6425 326.807C46.8407 327.154 47.1099 327.444 47.4501 327.685L46.437 329.059C46.3095 329.229 46.2953 329.455 46.3873 329.639C46.4865 329.83 46.6708 329.944 46.8833 329.944H47.1738C46.9022 330.127 46.6826 330.343 46.5276 330.597L46.5077 330.631C46.3236 330.935 46.2314 331.254 46.2314 331.579C46.2314 332.177 46.4912 332.673 47.0037 333.046L47.032 333.066C47.5564 333.442 48.2931 333.633 49.2211 333.633C49.8657 333.633 50.4821 333.527 51.0419 333.321C51.5923 333.122 52.0425 332.829 52.3795 332.449L52.4088 332.415C52.756 332.018 52.9333 331.537 52.9333 330.985C52.9333 330.404 52.7207 329.993 52.2249 329.597C51.7998 329.264 51.1338 329.087 50.3049 329.087H47.4713C47.4671 329.087 47.4632 329.085 47.46 329.082L47.4571 329.08L47.4558 329.077C47.4543 329.072 47.452 329.064 47.4571 329.059L48.1939 328.067C48.3684 328.149 48.5513 328.21 48.7394 328.251C48.9093 328.287 49.1006 328.301 49.3132 328.301C49.9082 328.301 50.4467 328.181 50.9143 327.94C51.3818 327.699 51.7573 327.373 52.0265 326.956C52.2956 326.545 52.4302 326.085 52.4302 325.596C52.4302 325.072 52.1753 324.116 51.481 323.628C51.481 323.623 51.4835 323.622 51.4855 323.621L51.488 323.621L53.0112 323.79V323.09H50.5741C50.1917 322.969 49.7948 322.898 49.3841 322.898ZM50.2341 327.331C49.9649 327.472 49.6746 327.55 49.3841 327.55C48.9095 327.55 48.4914 327.38 48.1372 327.048C47.783 326.715 47.6059 326.226 47.6059 325.603C47.6059 324.98 47.783 324.491 48.1372 324.159C48.4914 323.826 48.9093 323.656 49.3841 323.656C49.6691 323.656 49.9413 323.721 50.2004 323.857L50.2341 323.875C50.5034 324.017 50.7229 324.237 50.9001 324.527C51.07 324.817 51.1623 325.178 51.1623 325.603C51.1623 326.035 51.0772 326.396 50.9001 326.679C50.7301 326.97 50.5034 327.189 50.2341 327.331V327.331ZM48.3143 329.937H50.2341C50.7654 329.937 51.1056 330.043 51.3322 330.269C51.5589 330.496 51.6722 330.8 51.6722 331.154C51.6722 331.671 51.4668 332.096 51.0559 332.415C50.645 332.734 50.0925 332.896 49.4124 332.896C48.8172 332.896 48.3213 332.762 47.96 332.507C47.5987 332.252 47.4146 331.862 47.4146 331.367C47.4146 331.055 47.4996 330.765 47.6696 330.51C47.8396 330.255 48.0451 330.071 48.3142 329.937H48.3143Z" fill="#001E2B"/>
</g>
<g clip-path="url(#clip5_49_38)">
<path d="M41.5604 169.811L19.9159 163.802L15.0925 109.702H68.0931L63.2647 163.793L41.5604 169.811Z" fill="#264DE4"/>
<path d="M59.131 160.349L63.257 114.125H41.5928V165.211L59.131 160.349Z" fill="#2965F1"/>
<path d="M26.1501 134.19L26.7447 140.825H41.5928V134.19H26.1501ZM24.955 120.761L25.5582 127.396H41.5928V120.761H24.955ZM41.5928 151.422L41.5637 151.43L34.1742 149.435L33.7018 144.143H27.0411L27.9706 154.561L41.5623 158.334L41.5928 158.326V151.422Z" fill="#EBEBEB"/>
<path d="M27.5659 95H35.6019V98.3607H30.9266V101.721H35.6024V105.082H27.5659V95ZM37.2094 95H45.2456V97.9223H40.57V98.5067H45.2456V105.228H37.2096V102.159H41.8851V101.575H37.2091V95H37.2094ZM46.853 95H54.8892V97.9223H50.2136V98.5067H54.8892V105.228H46.853V102.159H51.5285V101.575H46.8532V95H46.853Z" fill="black"/>
<path d="M56.9931 134.19L58.1909 120.761H41.5699V127.396H50.9194L50.3156 134.19H41.5699V140.825H49.7404L48.97 149.431L41.5697 151.428V158.331L55.1722 154.561L55.2719 153.44L56.8313 135.972L56.9931 134.19Z" fill="white"/>
</g>
<path d="M71.2375 194.688H11.7625C10.0642 194.688 8.6875 196.064 8.6875 197.763V257.237C8.6875 258.936 10.0642 260.312 11.7625 260.312H71.2375C72.9358 260.312 74.3125 258.936 74.3125 257.237V197.763C74.3125 196.064 72.9358 194.688 71.2375 194.688Z" fill="#3178C6"/>
<path fill-rule="evenodd" clip-rule="evenodd" d="M46.7617 245.685V252.876C48.0682 253.521 49.4606 253.974 50.8961 254.223C52.555 254.53 54.2389 254.68 55.9258 254.673C57.5699 254.681 59.2102 254.515 60.8195 254.179C62.2644 253.887 63.643 253.331 64.8859 252.538C66.0398 251.793 66.9909 250.774 67.6539 249.571C68.8413 247.08 68.9979 244.222 68.0898 241.616C67.7066 240.642 67.1357 239.753 66.4094 238.998C65.6298 238.197 64.7443 237.505 63.7773 236.943C62.6642 236.291 61.5075 235.716 60.3156 235.223C59.3781 234.834 58.5344 234.455 57.7844 234.088C57.1182 233.769 56.4807 233.394 55.8789 232.966C55.4076 232.635 54.9982 232.224 54.6695 231.752C54.3856 231.322 54.2378 230.818 54.2453 230.303C54.2391 229.83 54.371 229.365 54.625 228.965C54.9009 228.547 55.2689 228.197 55.7008 227.943C56.2288 227.632 56.8033 227.408 57.4023 227.28C58.1378 227.116 58.8896 227.038 59.643 227.045C60.2766 227.047 60.9093 227.093 61.5367 227.181C62.2143 227.273 62.8847 227.411 63.543 227.596C64.2126 227.782 64.8675 228.017 65.5023 228.299C66.1184 228.574 66.7076 228.905 67.2625 229.288V222.578C66.1073 222.141 64.9093 221.827 63.6883 221.641C62.2138 221.426 60.7251 221.325 59.2352 221.338C57.6065 221.33 55.9826 221.514 54.3977 221.889C52.965 222.216 51.6028 222.798 50.3758 223.607C49.236 224.366 48.2948 225.388 47.6313 226.586C46.9281 227.916 46.5801 229.406 46.6211 230.91C46.5692 232.899 47.2244 234.843 48.4703 236.395C49.9989 238.115 51.9264 239.434 54.0836 240.236C55.068 240.642 55.9859 241.04 56.8375 241.429C57.6058 241.771 58.3443 242.176 59.0453 242.641C59.6107 243.008 60.1073 243.472 60.5125 244.012C60.8688 244.501 61.0578 245.092 61.0516 245.697C61.0548 246.15 60.9384 246.597 60.7141 246.991C60.4648 247.414 60.1145 247.769 59.6945 248.024C59.169 248.345 58.594 248.576 57.993 248.709C57.21 248.884 56.4092 248.966 55.607 248.955C54.0327 248.952 52.471 248.674 50.9922 248.134C49.4472 247.577 48.0145 246.747 46.7617 245.685ZM34.682 227.784H44.057V221.861H17.9172V227.784H27.25V254.16H34.682V227.784Z" fill="white"/>
<g clip-path="url(#clip6_49_38)">
<path d="M4 0H79V75H4V0Z" fill="#F7DF1E"/>
<path d="M23.7203 62.6754L29.4596 59.202C30.567 61.1651 31.5742 62.8263 33.9903 62.8263C36.3062 62.8263 37.7667 61.9204 37.7667 58.3966V34.4323H44.8146V58.4962C44.8146 65.7961 40.5355 69.1189 34.2924 69.1189C28.6542 69.1189 25.3814 66.1989 23.72 62.6748M48.6429 61.9201L54.3815 58.5976C55.8924 61.0647 57.8559 62.877 61.3293 62.877C64.2499 62.877 66.112 61.4168 66.112 59.4029C66.112 56.9865 64.1989 56.1305 60.9769 54.7213L59.2152 53.9654C54.1302 51.8013 50.7572 49.0825 50.7572 43.3433C50.7572 38.0569 54.7847 34.0292 61.0779 34.0292C65.5586 34.0292 68.7807 35.5901 71.0963 39.668L65.6084 43.1924C64.3999 41.0276 63.0915 40.1719 61.0776 40.1719C59.0134 40.1719 57.7044 41.4809 57.7044 43.1924C57.7044 45.3067 59.0134 46.1631 62.0339 47.4721L63.7958 48.2271C69.787 50.7949 73.16 53.4126 73.16 59.3025C73.16 65.6464 68.176 69.1198 61.4802 69.1198C54.9355 69.1198 50.7065 65.9985 48.6426 61.9204" fill="black"/>
</g>
</g>
<g filter="url(#filter2_d_49_38)">
<g clip-path="url(#clip7_49_38)">
<path d="M210.709 331.314C210.26 329.952 209.082 329.004 207.558 328.776C206.84 328.669 206.017 328.714 205.044 328.915C203.347 329.265 202.088 329.399 201.169 329.424C204.637 323.569 207.457 316.893 209.08 310.608C211.705 300.445 210.302 295.815 208.663 293.721C204.325 288.178 197.996 285.2 190.361 285.109C186.288 285.059 182.712 285.863 180.847 286.442C179.11 286.135 177.243 285.964 175.283 285.933C171.61 285.874 168.365 286.675 165.592 288.32C164.057 287.801 161.593 287.069 158.748 286.602C152.056 285.504 146.662 286.36 142.717 289.147C137.94 292.521 135.725 298.384 136.135 306.572C136.265 309.172 137.719 317.082 140.009 324.584C141.325 328.896 142.729 332.477 144.18 335.228C146.239 339.129 148.442 341.426 150.915 342.251C152.301 342.712 154.819 343.036 157.468 340.83C157.804 341.237 158.252 341.641 158.846 342.016C159.601 342.492 160.524 342.881 161.446 343.112C164.769 343.942 167.881 343.734 170.536 342.57C170.552 343.042 170.565 343.494 170.576 343.883C170.593 344.515 170.611 345.135 170.634 345.714C170.791 349.632 171.058 352.679 171.848 354.811C171.891 354.928 171.949 355.107 172.011 355.296C172.405 356.503 173.064 358.522 174.74 360.104C176.476 361.743 178.576 362.245 180.499 362.245C181.463 362.245 182.383 362.118 183.191 361.946C186.067 361.329 189.335 360.39 191.699 357.024C193.933 353.842 195.02 349.05 195.216 341.5C195.242 341.286 195.265 341.082 195.288 340.888L195.335 340.489L195.861 340.535L195.997 340.544C198.927 340.678 202.51 340.056 204.711 339.034C206.449 338.227 212.021 335.286 210.709 331.314Z" fill="black"/>
<path d="M205.699 332.087C196.986 333.884 196.387 330.934 196.387 330.934C205.586 317.284 209.432 299.957 206.114 295.716C197.06 284.148 181.387 289.619 181.126 289.761L181.042 289.776C179.32 289.419 177.394 289.206 175.229 289.17C171.286 289.106 168.296 290.204 166.026 291.925C166.026 291.925 138.068 280.407 139.369 306.41C139.645 311.942 147.298 348.268 156.425 337.296C159.761 333.284 162.984 329.891 162.984 329.891C164.585 330.955 166.502 331.497 168.511 331.303L168.667 331.17C168.619 331.668 168.641 332.155 168.73 332.732C166.378 335.359 167.069 335.82 162.369 336.788C157.613 337.768 160.407 339.513 162.231 339.97C164.443 340.523 169.559 341.306 173.016 336.466L172.878 337.019C173.799 337.757 174.446 341.818 174.338 345.501C174.229 349.183 174.157 351.711 174.883 353.685C175.609 355.66 176.332 360.103 182.512 358.779C187.675 357.672 190.35 354.805 190.723 350.022C190.987 346.622 191.585 347.125 191.622 344.084L192.102 342.645C192.655 338.036 192.19 336.549 195.37 337.241L196.144 337.309C198.485 337.415 201.549 336.932 203.348 336.096C207.22 334.299 209.517 331.298 205.698 332.087H205.699Z" fill="#336791"/>
<path d="M167.663 308.884C166.878 308.775 166.167 308.876 165.807 309.149C165.605 309.302 165.542 309.479 165.525 309.601C165.48 309.925 165.707 310.283 165.846 310.468C166.241 310.99 166.817 311.35 167.387 311.429C167.469 311.44 167.552 311.446 167.633 311.446C168.584 311.446 169.449 310.705 169.525 310.159C169.62 309.475 168.626 309.018 167.663 308.885M193.674 308.906C193.599 308.37 192.644 308.217 191.738 308.343C190.834 308.469 189.957 308.877 190.03 309.415C190.088 309.833 190.843 310.546 191.737 310.546C191.813 310.546 191.889 310.541 191.966 310.53C192.562 310.448 193 310.069 193.208 309.851C193.524 309.518 193.708 309.147 193.674 308.906Z" fill="white"/>
<path d="M208.598 331.882C208.266 330.878 207.197 330.555 205.42 330.921C200.145 332.01 198.256 331.256 197.636 330.799C201.736 324.553 205.109 317.003 206.929 309.958C207.791 306.621 208.267 303.522 208.306 300.996C208.349 298.224 207.876 296.187 206.903 294.942C202.976 289.925 197.213 287.234 190.238 287.16C185.442 287.106 181.391 288.333 180.605 288.679C178.951 288.267 177.148 288.015 175.185 287.982C171.585 287.924 168.473 288.786 165.896 290.543C164.777 290.126 161.885 289.133 158.348 288.564C152.233 287.579 147.374 288.325 143.906 290.782C139.769 293.713 137.859 298.953 138.229 306.356C138.353 308.846 139.772 316.508 142.012 323.846C144.96 333.503 148.164 338.97 151.536 340.095C151.93 340.226 152.385 340.318 152.887 340.318C154.117 340.318 155.625 339.764 157.194 337.878C159.107 335.582 161.087 333.343 163.129 331.161C164.455 331.873 165.911 332.27 167.4 332.31C167.403 332.349 167.407 332.388 167.41 332.426C167.154 332.732 166.903 333.042 166.657 333.357C165.626 334.666 165.411 334.939 162.089 335.623C161.145 335.818 158.635 336.335 158.598 338.094C158.559 340.016 161.565 340.823 161.907 340.909C163.101 341.208 164.251 341.355 165.347 341.355C168.014 341.355 170.361 340.478 172.237 338.782C172.179 345.634 172.465 352.385 173.287 354.442C173.961 356.126 175.607 360.241 180.806 360.241C181.569 360.241 182.409 360.152 183.332 359.954C188.758 358.791 191.115 356.393 192.026 351.105C192.514 348.28 193.351 341.532 193.745 337.913C194.576 338.172 195.645 338.291 196.802 338.291C199.213 338.291 201.996 337.778 203.741 336.968C205.702 336.058 209.24 333.824 208.598 331.882ZM195.677 307.425C195.659 308.494 195.512 309.464 195.356 310.476C195.188 311.565 195.014 312.691 194.971 314.058C194.928 315.388 195.094 316.771 195.254 318.108C195.579 320.809 195.912 323.59 194.623 326.334C194.409 325.955 194.218 325.562 194.051 325.16C193.891 324.771 193.543 324.147 193.061 323.283C191.187 319.921 186.796 312.048 189.044 308.835C189.713 307.879 191.412 306.896 195.677 307.425ZM190.507 289.324C196.758 289.462 201.702 291.8 205.202 296.273C207.887 299.704 204.931 315.315 196.372 328.783C196.286 328.674 196.199 328.565 196.112 328.456L196.004 328.321C198.216 324.668 197.783 321.054 197.398 317.851C197.24 316.536 197.091 315.294 197.129 314.127C197.168 312.891 197.332 311.83 197.49 310.805C197.684 309.541 197.882 308.234 197.827 306.693C197.868 306.531 197.884 306.34 197.863 306.113C197.724 304.635 196.036 300.212 192.597 296.208C190.715 294.018 187.972 291.567 184.226 289.914C185.837 289.58 188.04 289.269 190.507 289.324ZM155.533 336.497C153.805 338.576 152.611 338.177 152.219 338.047C149.661 337.194 146.693 331.788 144.077 323.215C141.813 315.798 140.49 308.339 140.385 306.248C140.054 299.633 141.658 295.023 145.151 292.546C150.836 288.515 160.182 290.928 163.937 292.151C163.884 292.205 163.827 292.254 163.774 292.309C157.611 298.533 157.757 309.166 157.773 309.816C157.772 310.067 157.793 310.422 157.822 310.91C157.928 312.699 158.125 316.028 157.598 319.797C157.108 323.3 158.188 326.729 160.56 329.204C160.804 329.458 161.059 329.699 161.327 329.927C160.271 331.058 157.976 333.559 155.533 336.497ZM162.119 327.71C160.207 325.715 159.339 322.94 159.736 320.096C160.293 316.114 160.088 312.646 159.977 310.783C159.962 310.522 159.948 310.293 159.94 310.113C160.84 309.315 165.012 307.08 167.988 307.761C169.345 308.072 170.173 308.997 170.517 310.587C172.297 318.82 170.752 322.252 169.511 325.01C169.255 325.578 169.014 326.115 168.808 326.67L168.648 327.1C168.243 328.185 167.866 329.195 167.632 330.154C165.6 330.148 163.623 329.279 162.119 327.71V327.71ZM162.431 338.814C161.837 338.666 161.304 338.408 160.991 338.195C161.252 338.072 161.718 337.904 162.525 337.738C166.432 336.933 167.036 336.366 168.354 334.692C168.656 334.309 168.998 333.874 169.473 333.344L169.473 333.344C170.179 332.553 170.503 332.687 171.089 332.93C171.563 333.126 172.026 333.722 172.214 334.377C172.302 334.686 172.402 335.273 172.076 335.73C169.323 339.584 165.312 339.535 162.431 338.814ZM182.88 357.843C178.1 358.867 176.407 356.428 175.292 353.64C174.572 351.84 174.218 343.723 174.469 334.759C174.473 334.64 174.456 334.525 174.423 334.416C174.393 334.202 174.349 333.99 174.289 333.783C173.916 332.479 173.006 331.388 171.915 330.935C171.481 330.756 170.686 330.426 169.729 330.671C169.933 329.83 170.287 328.881 170.671 327.854L170.831 327.422C171.012 326.935 171.24 326.43 171.48 325.896C172.779 323.01 174.557 319.058 172.627 310.131C171.904 306.787 169.489 305.154 165.829 305.533C163.635 305.76 161.627 306.646 160.625 307.153C160.41 307.262 160.213 307.368 160.029 307.47C160.309 304.101 161.365 297.805 165.314 293.821C167.801 291.313 171.113 290.075 175.149 290.141C183.1 290.271 188.199 294.352 191.076 297.752C193.556 300.682 194.899 303.634 195.435 305.226C191.405 304.816 188.664 305.612 187.275 307.598C184.252 311.919 188.928 320.304 191.176 324.335C191.588 325.073 191.944 325.712 192.055 325.983C192.787 327.757 193.735 328.941 194.426 329.805C194.639 330.07 194.844 330.327 195.001 330.551C193.78 330.903 191.588 331.716 191.788 335.78C191.627 337.819 190.481 347.366 189.899 350.739C189.13 355.195 187.49 356.854 182.88 357.843V357.843ZM202.832 335.01C201.584 335.589 199.496 336.024 197.512 336.117C195.32 336.22 194.205 335.872 193.942 335.658C193.819 333.125 194.762 332.861 195.759 332.58C195.916 332.537 196.069 332.493 196.217 332.442C196.308 332.517 196.409 332.591 196.519 332.663C198.28 333.826 201.422 333.951 205.857 333.036L205.906 333.026C205.307 333.585 204.284 334.336 202.832 335.01Z" fill="white"/>
</g>
<g clip-path="url(#clip8_49_38)">
<path d="M172.046 111C162.433 111 156.425 115.806 154.023 125.418C157.627 120.612 161.833 118.81 166.639 120.012C169.38 120.697 171.341 122.686 173.51 124.889C177.044 128.475 181.134 132.627 190.068 132.627C199.68 132.627 205.688 127.821 208.091 118.209C204.487 123.016 200.281 124.818 195.475 123.616C192.733 122.93 190.773 120.941 188.604 118.739C185.069 115.152 180.98 111 172.046 111ZM154.023 132.627C144.411 132.627 138.403 137.433 136 147.046C139.605 142.239 143.81 140.437 148.616 141.639C151.358 142.324 153.318 144.314 155.487 146.515C159.022 150.103 163.112 154.254 172.046 154.254C181.657 154.254 187.665 149.448 190.068 139.836C186.463 144.643 182.258 146.445 177.453 145.243C174.71 144.558 172.75 142.568 170.58 140.366C167.047 136.78 162.956 132.627 154.023 132.627Z" fill="url(#paint0_linear_49_38)"/>
</g>
<g clip-path="url(#clip9_49_38)">
<path d="M198.921 220.006V222.417H193.739V235.103H191.148V222.418H185.858V220.006H198.921ZM199.504 233.665C199.686 233.665 199.846 233.73 199.981 233.862C200.118 233.993 200.187 234.151 200.189 234.334C200.188 234.454 200.155 234.572 200.092 234.675C200.03 234.776 199.944 234.86 199.841 234.919C199.739 234.98 199.622 235.011 199.504 235.01C199.314 235.01 199.153 234.945 199.018 234.813C198.882 234.682 198.815 234.522 198.817 234.334C198.816 234.151 198.882 233.993 199.018 233.862C199.153 233.73 199.314 233.665 199.504 233.665ZM148.146 235.103L138.591 223.227V235.096H136V220H139.239L151.31 234.99L151.31 222.418L151.309 220.006H164.373V222.417H153.901V226.296H162.323V228.708H153.901V232.691H164.373V235.103H148.146ZM172.677 228.685L174.376 230.796L170.896 235.12H167.495L172.677 228.685ZM170.896 220.013L175.28 225.457L179.651 220.029L183.042 220.024L176.978 227.566L183.052 235.109H179.651L167.505 220.013H170.896ZM203.926 228.651H205.075V233.075C205.073 233.481 204.985 233.829 204.813 234.121C204.639 234.413 204.399 234.637 204.09 234.794C203.782 234.95 203.423 235.029 203.013 235.029C202.639 235.029 202.304 234.962 202.006 234.831C201.707 234.699 201.47 234.502 201.296 234.242C201.121 233.983 201.035 233.659 201.035 233.272H202.185C202.187 233.441 202.225 233.588 202.299 233.711C202.371 233.833 202.478 233.931 202.604 233.993C202.736 234.059 202.887 234.092 203.057 234.092C203.242 234.092 203.4 234.054 203.528 233.976C203.656 233.9 203.754 233.785 203.823 233.633C203.89 233.483 203.925 233.296 203.926 233.074V228.651V228.651ZM209.799 230.381C209.771 230.113 209.648 229.903 209.434 229.755C209.218 229.604 208.939 229.53 208.596 229.53C208.356 229.53 208.149 229.566 207.977 229.637C207.805 229.71 207.671 229.806 207.58 229.929C207.489 230.052 207.443 230.192 207.439 230.35C207.439 230.481 207.471 230.595 207.532 230.69C207.596 230.79 207.682 230.874 207.783 230.934C207.894 231.004 208.012 231.06 208.135 231.102C208.265 231.147 208.395 231.185 208.524 231.216L209.123 231.364C209.364 231.419 209.597 231.493 209.82 231.588C210.043 231.682 210.245 231.801 210.422 231.945C210.6 232.088 210.74 232.261 210.844 232.464C210.947 232.666 211 232.903 211 233.177C211 233.545 210.905 233.869 210.714 234.149C210.522 234.427 210.247 234.645 209.885 234.803C209.525 234.959 209.09 235.038 208.577 235.038C208.082 235.038 207.65 234.962 207.287 234.81C206.922 234.659 206.637 234.438 206.432 234.147C206.226 233.856 206.116 233.502 206.1 233.085H207.238C207.253 233.303 207.324 233.484 207.443 233.632C207.564 233.777 207.722 233.884 207.915 233.957C208.11 234.028 208.328 234.064 208.568 234.064C208.819 234.064 209.041 234.026 209.232 233.952C209.422 233.877 209.571 233.773 209.678 233.638C209.787 233.505 209.841 233.348 209.843 233.168C209.841 233.004 209.792 232.867 209.697 232.76C209.601 232.652 209.467 232.562 209.297 232.49C209.125 232.417 208.925 232.351 208.697 232.294L207.97 232.111C207.445 231.978 207.029 231.775 206.725 231.504C206.419 231.232 206.268 230.872 206.268 230.421C206.268 230.05 206.37 229.725 206.576 229.446C206.779 229.168 207.059 228.952 207.411 228.798C207.766 228.642 208.166 228.566 208.612 228.566C209.065 228.566 209.462 228.642 209.804 228.798C210.147 228.952 210.415 229.166 210.61 229.44C210.805 229.713 210.907 230.026 210.912 230.381H209.799Z" fill="black"/>
</g>
<path d="M173.5 43.2984C176.736 43.2984 179.359 40.6751 179.359 37.4391C179.359 34.203 176.736 31.5797 173.5 31.5797C170.264 31.5797 167.641 34.203 167.641 37.4391C167.641 40.6751 170.264 43.2984 173.5 43.2984Z" fill="#00D8FF"/>
<path d="M173.5 50.8734C166.457 51.0438 159.432 50.0945 152.688 48.0609C149.572 47.0732 146.666 45.5173 144.116 43.4719C143.144 42.7731 142.333 41.8721 141.742 40.8308C141.15 39.7895 140.79 38.6324 140.688 37.439C140.688 33.5648 144.944 29.768 152.073 27.2836C158.999 25.0822 166.234 24.0153 173.5 24.1242C180.669 24.024 187.808 25.0717 194.645 27.2273C197.646 28.1839 200.453 29.6646 202.938 31.6008C203.894 32.267 204.692 33.1353 205.275 34.1442C205.858 35.1531 206.212 36.278 206.312 37.439C206.312 41.4656 201.555 45.5461 193.891 48.082C187.276 50.0493 180.4 50.9907 173.5 50.8734ZM173.5 26.9273C166.549 26.8344 159.627 27.8487 152.995 29.932C146.432 32.2219 143.491 35.3531 143.491 37.432C143.491 39.607 146.652 43.0266 153.595 45.4008C160.047 47.3364 166.765 48.2374 173.5 48.0703C180.101 48.1883 186.681 47.2952 193.012 45.4219C200.219 43.0336 203.5 39.6094 203.5 37.439C203.382 36.6943 203.11 35.9821 202.703 35.3475C202.295 34.713 201.761 34.1698 201.133 33.7523C198.91 32.0347 196.402 30.7224 193.724 29.8758C187.183 27.8221 180.355 26.8267 173.5 26.9273Z" fill="#00D8FF"/>
<path d="M160.188 66.6633C159.094 66.6884 158.014 66.4231 157.056 65.8945C153.7 63.9586 152.538 58.3758 153.946 50.9578C155.499 43.8588 158.19 37.0577 161.915 30.818C165.409 24.5581 169.882 18.8975 175.164 14.0508C177.492 11.929 180.177 10.2364 183.095 9.05158C184.151 8.5569 185.302 8.30048 186.468 8.30048C187.634 8.30048 188.785 8.5569 189.841 9.05158C193.33 11.0625 194.486 17.2219 192.857 25.1274C191.256 31.8412 188.635 38.2698 185.085 44.1891C181.714 50.3751 177.382 55.9864 172.251 60.8133C169.839 63.0182 167.039 64.7577 163.994 65.9438C162.775 66.3963 161.488 66.6395 160.188 66.6633ZM164.343 32.2102C160.79 38.1852 158.211 44.6876 156.702 51.4734C155.406 58.3055 156.651 62.4141 158.46 63.4594C160.335 64.5445 164.887 63.5156 170.413 58.6875C175.312 54.0632 179.447 48.6919 182.664 42.7734C186.065 37.1145 188.579 30.9683 190.12 24.5484C191.652 17.107 190.328 12.5508 188.448 11.468C187.744 11.198 186.991 11.0772 186.237 11.1131C185.484 11.149 184.746 11.3409 184.07 11.6766C181.473 12.7485 179.085 14.2702 177.016 16.1719C171.969 20.8144 167.696 26.2335 164.359 32.2242L164.343 32.2102Z" fill="#00D8FF"/>
<path d="M186.805 66.6938C183.63 66.6938 179.596 64.7719 175.396 61.1602C170.021 56.2694 165.473 50.5415 161.927 44.1984C158.249 38.0446 155.579 31.3419 154.019 24.3445C153.342 21.266 153.217 18.0919 153.648 14.9695C153.748 13.8113 154.101 12.689 154.682 11.6819C155.262 10.6747 156.057 9.80727 157.009 9.14064C160.495 7.12267 166.408 9.19689 172.443 14.5547C177.46 19.2942 181.72 24.7751 185.076 30.8063C188.751 36.8164 191.449 43.3723 193.068 50.2289C193.774 53.4204 193.883 56.715 193.389 59.9461C193.272 61.1377 192.898 62.2898 192.294 63.3234C191.689 64.357 190.868 65.2477 189.888 65.9344C188.946 66.4564 187.882 66.7185 186.805 66.6938ZM164.352 42.7875C167.754 48.8495 172.099 54.3313 177.224 59.0274C182.495 63.5625 186.677 64.5375 188.474 63.4805C190.349 62.3906 191.732 57.9422 190.307 50.7445C188.746 44.1983 186.158 37.9404 182.641 32.2031C179.439 26.4308 175.372 21.1825 170.582 16.6406C164.901 11.5969 160.293 10.4695 158.416 11.557C157.83 12.0325 157.35 12.6242 157.005 13.2947C156.66 13.9651 156.458 14.6998 156.412 15.4524C156.039 18.2369 156.16 21.0654 156.77 23.8078C158.271 30.4996 160.831 36.9085 164.355 42.7922L164.352 42.7875Z" fill="#00D8FF"/>
</g>
<defs>
<filter id="filter0_d_49_38" x="264" y="0" width="83" height="357.123" filterUnits="userSpaceOnUse" color-interpolation-filters="sRGB">
<feFlood flood-opacity="0" result="BackgroundImageFix"/>
<feColorMatrix in="SourceAlpha" type="matrix" values="0 0 0 0 0 0 0 0 0 0 0 0 0 0 0 0 0 0 127 0" result="hardAlpha"/>
<feOffset dy="4"/>
<feGaussianBlur stdDeviation="2"/>
<feComposite in2="hardAlpha" operator="out"/>
<feColorMatrix type="matrix" values="0 0 0 0 0 0 0 0 0 0 0 0 0 0 0 0 0 0 0.25 0"/>
<feBlend mode="normal" in2="BackgroundImageFix" result="effect1_dropShadow_49_38"/>
<feBlend mode="normal" in="SourceGraphic" in2="effect1_dropShadow_49_38" result="shape"/>
</filter>
<filter id="filter1_d_49_38" x="0" y="0" width="83" height="341.775" filterUnits="userSpaceOnUse" color-interpolation-filters="sRGB">
<feFlood flood-opacity="0" result="BackgroundImageFix"/>
<feColorMatrix in="SourceAlpha" type="matrix" values="0 0 0 0 0 0 0 0 0 0 0 0 0 0 0 0 0 0 127 0" result="hardAlpha"/>
<feOffset dy="4"/>
<feGaussianBlur stdDeviation="2"/>
<feComposite in2="hardAlpha" operator="out"/>
<feColorMatrix type="matrix" values="0 0 0 0 0 0 0 0 0 0 0 0 0 0 0 0 0 0 0.25 0"/>
<feBlend mode="normal" in2="BackgroundImageFix" result="effect1_dropShadow_49_38"/>
<feBlend mode="normal" in="SourceGraphic" in2="effect1_dropShadow_49_38" result="shape"/>
</filter>
<filter id="filter2_d_49_38" x="132" y="0" width="83" height="370.344" filterUnits="userSpaceOnUse" color-interpolation-filters="sRGB">
<feFlood flood-opacity="0" result="BackgroundImageFix"/>
<feColorMatrix in="SourceAlpha" type="matrix" values="0 0 0 0 0 0 0 0 0 0 0 0 0 0 0 0 0 0 127 0" result="hardAlpha"/>
<feOffset dy="4"/>
<feGaussianBlur stdDeviation="2"/>
<feComposite in2="hardAlpha" operator="out"/>
<feColorMatrix type="matrix" values="0 0 0 0 0 0 0 0 0 0 0 0 0 0 0 0 0 0 0.25 0"/>
<feBlend mode="normal" in2="BackgroundImageFix" result="effect1_dropShadow_49_38"/>
<feBlend mode="normal" in="SourceGraphic" in2="effect1_dropShadow_49_38" result="shape"/>
</filter>
<linearGradient id="paint0_linear_49_38" x1="133.997" y1="124.841" x2="196.259" y2="160.741" gradientUnits="userSpaceOnUse">
<stop stop-color="#2298BD"/>
<stop offset="1" stop-color="#0ED7B5"/>
</linearGradient>
<clipPath id="clip0_49_38">
<rect width="75" height="71.4844" fill="white" transform="translate(268 192)"/>
</clipPath>
<clipPath id="clip1_49_38">
<rect width="75" height="51.123" fill="white" transform="translate(268 298)"/>
</clipPath>
<clipPath id="clip2_49_38">
<rect width="75" height="59.7656" fill="white" transform="translate(268 103)"/>
</clipPath>
<clipPath id="clip3_49_38">
<rect width="53.1856" height="75" fill="white" transform="translate(279)"/>
</clipPath>
<clipPath id="clip4_49_38">
<rect width="75" height="19.7754" fill="white" transform="translate(4 314)"/>
</clipPath>
<clipPath id="clip5_49_38">
<rect width="53.1856" height="75" fill="white" transform="translate(15 95)"/>
</clipPath>
<clipPath id="clip6_49_38">
<rect width="75" height="75" fill="white" transform="translate(4)"/>
</clipPath>
<clipPath id="clip7_49_38">
<rect width="75" height="77.3438" fill="white" transform="translate(136 285)"/>
</clipPath>
<clipPath id="clip8_49_38">
<rect width="75" height="43.6364" fill="white" transform="translate(136 111)"/>
</clipPath>
<clipPath id="clip9_49_38">
<rect width="75" height="15.2344" fill="white" transform="translate(136 220)"/>
</clipPath>
</defs>
</svg>
