<svg width="75" height="44" viewBox="0 0 75 44" fill="none" xmlns="http://www.w3.org/2000/svg">
<g clip-path="url(#clip0_49_34)">
<path d="M36.0457 0C26.4334 0 20.4252 4.80614 18.0225 14.4184C21.6273 9.61159 25.8327 7.80955 30.6389 9.01159C33.3805 9.69682 35.3407 11.6864 37.5102 13.8886C41.0441 17.475 45.1343 21.6273 54.0682 21.6273C63.6805 21.6273 69.688 16.8211 72.0907 7.20886C68.4866 12.0157 64.2812 13.8177 59.475 12.6157C56.7328 11.9305 54.7732 9.94091 52.6037 7.73864C49.0691 4.15227 44.9796 0 36.0457 0ZM18.0225 21.6273C8.41091 21.6273 2.40273 26.4334 0 36.0457C3.60477 31.2389 7.80955 29.4368 12.6157 30.6389C15.358 31.3241 17.3182 33.3136 19.4871 35.5152C23.0216 39.103 27.1118 43.2539 36.0457 43.2539C45.6573 43.2539 51.6648 38.4484 54.0682 28.8361C50.4634 33.643 46.258 35.445 41.4525 34.243C38.7102 33.5577 36.75 31.5682 34.5805 29.3659C31.0466 25.7795 26.9564 21.6273 18.0225 21.6273V21.6273Z" fill="url(#paint0_linear_49_34)"/>
</g>
<defs>
<linearGradient id="paint0_linear_49_34" x1="-2.00268" y1="13.8412" x2="60.259" y2="49.7407" gradientUnits="userSpaceOnUse">
<stop stop-color="#2298BD"/>
<stop offset="1" stop-color="#0ED7B5"/>
</linearGradient>
<clipPath id="clip0_49_34">
<rect width="75" height="43.6364" fill="white"/>
</clipPath>
</defs>
</svg>
