<svg width="270" height="270" viewBox="0 0 270 270" fill="none" xmlns="http://www.w3.org/2000/svg">
<path d="M242.055 16.875H27.945C21.8312 16.875 16.875 21.8312 16.875 27.945V242.055C16.875 248.169 21.8312 253.125 27.945 253.125H242.055C248.169 253.125 253.125 248.169 253.125 242.055V27.945C253.125 21.8312 248.169 16.875 242.055 16.875Z" fill="#3178C6"/>
<path fill-rule="evenodd" clip-rule="evenodd" d="M153.942 200.467V226.353C158.646 228.674 163.658 230.308 168.826 231.204C174.798 232.307 180.86 232.849 186.933 232.824C192.852 232.852 198.757 232.256 204.55 231.044C209.752 229.993 214.715 227.991 219.189 225.138C223.343 222.456 226.767 218.786 229.154 214.456C233.429 205.49 233.993 195.199 230.723 185.819C229.344 182.311 227.288 179.109 224.674 176.394C221.867 173.508 218.679 171.018 215.198 168.995C211.191 166.648 207.027 164.578 202.736 162.802C199.361 161.401 196.324 160.04 193.624 158.718C191.226 157.57 188.931 156.217 186.764 154.676C185.067 153.487 183.593 152.007 182.41 150.306C181.388 148.761 180.856 146.943 180.883 145.091C180.861 143.387 181.336 141.712 182.25 140.273C183.243 138.768 184.568 137.509 186.123 136.595C188.024 135.476 190.092 134.669 192.248 134.207C194.896 133.619 197.603 133.336 200.315 133.363C202.596 133.371 204.874 133.534 207.132 133.852C209.571 134.182 211.985 134.681 214.355 135.346C216.765 136.014 219.123 136.86 221.408 137.877C223.626 138.866 225.747 140.058 227.745 141.438V117.281C223.586 115.708 219.273 114.577 214.878 113.906C209.57 113.134 204.21 112.77 198.847 112.818C192.984 112.786 187.138 113.452 181.432 114.801C176.274 115.979 171.37 118.074 166.953 120.985C162.85 123.719 159.461 127.396 157.073 131.709C154.541 136.499 153.288 141.861 153.436 147.277C153.249 154.438 155.608 161.434 160.093 167.02C165.596 173.214 172.535 177.963 180.301 180.849C183.845 182.312 187.149 183.743 190.215 185.144C192.981 186.375 195.64 187.834 198.163 189.506C200.199 190.83 201.986 192.501 203.445 194.442C204.728 196.203 205.408 198.33 205.386 200.509C205.397 202.141 204.978 203.748 204.171 205.166C203.273 206.691 202.012 207.969 200.5 208.887C198.608 210.041 196.539 210.873 194.375 211.351C191.556 211.981 188.673 212.278 185.785 212.237C180.118 212.226 174.496 211.227 169.172 209.284C163.61 207.277 158.452 204.291 153.942 200.467ZM110.455 136.021H144.205V114.699H50.1019V136.021H83.7001V230.977H110.455V136.021Z" fill="white"/>
</svg>
