<svg width="75" height="75" viewBox="0 0 75 75" fill="none" xmlns="http://www.w3.org/2000/svg">
<path d="M67.2375 4.6875H7.7625C6.06422 4.6875 4.6875 6.06422 4.6875 7.7625V67.2375C4.6875 68.9358 6.06422 70.3125 7.7625 70.3125H67.2375C68.9358 70.3125 70.3125 68.9358 70.3125 67.2375V7.7625C70.3125 6.06422 68.9358 4.6875 67.2375 4.6875Z" fill="#3178C6"/>
<path fill-rule="evenodd" clip-rule="evenodd" d="M42.7617 55.6852V62.8758C44.0682 63.5206 45.4606 63.9745 46.8961 64.2234C48.555 64.5297 50.2389 64.6803 51.9258 64.6734C53.5699 64.6813 55.2102 64.5155 56.8195 64.1789C58.2644 63.8869 59.643 63.3307 60.8859 62.5383C62.0398 61.7934 62.9909 60.7739 63.6539 59.5711C64.8413 57.0805 64.9979 54.2219 64.0898 51.6164C63.7066 50.6421 63.1357 49.7526 62.4094 48.9984C61.6298 48.1965 60.7443 47.505 59.7773 46.943C58.6642 46.291 57.5075 45.7162 56.3156 45.2227C55.3781 44.8336 54.5344 44.4555 53.7844 44.0883C53.1182 43.7693 52.4807 43.3937 51.8789 42.9656C51.4075 42.6352 50.9982 42.2242 50.6695 41.7516C50.3856 41.3224 50.2378 40.8176 50.2453 40.3031C50.2391 39.8296 50.371 39.3645 50.625 38.9648C50.9009 38.5465 51.2689 38.197 51.7008 37.943C52.2288 37.6321 52.8033 37.4082 53.4023 37.2797C54.1378 37.1163 54.8896 37.0377 55.643 37.0453C56.2766 37.0475 56.9093 37.0929 57.5367 37.1813C58.2143 37.2729 58.8846 37.4115 59.543 37.5961C60.2126 37.7817 60.8675 38.0167 61.5023 38.2992C62.1184 38.5738 62.7076 38.9049 63.2625 39.2883V32.5781C62.1073 32.1411 60.9093 31.8268 59.6883 31.6406C58.2138 31.4261 56.7251 31.325 55.2352 31.3383C53.6065 31.3295 51.9826 31.5144 50.3977 31.8891C48.965 32.2164 47.6028 32.7983 46.3758 33.607C45.236 34.3663 44.2948 35.3879 43.6313 36.5859C42.9281 37.9164 42.5801 39.4058 42.6211 40.9102C42.5692 42.8995 43.2244 44.8428 44.4703 46.3945C45.9989 48.115 47.9264 49.4341 50.0836 50.2359C51.068 50.6422 51.9859 51.0398 52.8375 51.4289C53.6058 51.7708 54.3443 52.1761 55.0453 52.6406C55.6107 53.0084 56.1073 53.4725 56.5125 54.0117C56.8688 54.5008 57.0578 55.0918 57.0516 55.6969C57.0548 56.1503 56.9384 56.5966 56.7141 56.9906C56.4648 57.4141 56.1145 57.7692 55.6945 58.0242C55.169 58.3446 54.594 58.5759 53.993 58.7086C53.21 58.8836 52.4092 58.9662 51.607 58.9547C50.0327 58.9518 48.471 58.6742 46.9922 58.1344C45.4472 57.5769 44.0145 56.7474 42.7617 55.6852V55.6852ZM30.682 37.7836H40.057V31.8609H13.9172V37.7836H23.25V64.1602H30.682V37.7836Z" fill="white"/>
</svg>
